<svg width="420" height="316" viewBox="0 0 420 316" fill="none" xmlns="http://www.w3.org/2000/svg">
<path d="M506 316H-34.6314C-36.8453 291.24 -40.2104 239.819 -35.9597 232.213C-30.6464 222.705 -4.07972 217.951 -0.0947266 213.197C3.09327 209.394 69.8641 192.201 102.851 184.08L228.378 158.528L279.647 149.261C306.429 143.294 325.155 139.254 330 138.5C352.5 135 342 138.5 334 125.251C326 112.001 168.604 118 152 94C138.717 74.8 153.965 75.3333 165.5 60.5H207.5C208.833 75.6667 221.9 72.3 239.5 77.5C257.1 82.7 366.053 89.3156 418.33 91.9734C430.285 93.9542 459.907 101.719 482.754 116.931C505.602 132.144 490.503 154.962 480.098 164.47C465.486 177.147 434.004 205.591 424.972 217.951C413.681 233.401 434.934 258.359 441.576 264.896C446.889 270.125 476.555 279.752 490.724 283.911L506 316Z" fill="#FFE3AB"/>
<path d="M146 266C113.6 251.6 99.1667 207 96 186.5L-28.5 213.5L-45.5 335H146H255L433.5 327L421.5 266L425.5 234.5C345.833 251 178.4 280.4 146 266Z" fill="#F7D99C"/>
<path d="M129.157 288.363C91.513 266.754 80.0996 213.784 79.0985 190L-5 209.876V318.432L422 322V266.958C340.071 283.097 166.801 309.972 129.157 288.363Z" fill="#E9C986"/>
<path d="M251.793 245.378L242.688 229.991C241.317 228.546 235.592 231.918 234.545 231.538C233.499 231.158 230.21 235.651 229.145 235.975C228.292 236.234 228.425 241.005 228.598 243.358C229.265 244.784 230.876 247.786 231.988 248.379C233.377 249.12 236.156 250.602 239.676 250.695C242.492 250.769 244.629 249.886 245.346 249.435L249.644 246.731L251.793 245.378Z" fill="#E7BC85"/>
<path d="M257.499 242.711L248.033 227.666L252.369 223.554C252.128 223.782 251.874 223.611 252.786 221.099C253.697 218.587 255.154 215.878 255.769 214.837L260.104 210.724L263.337 208.344C264.288 207.899 266.548 206.808 267.978 206.001C269.409 205.193 273.064 204.608 274.713 204.417L278.594 204.167C279.99 204.673 283.059 205.835 284.171 206.428C285.56 207.169 286.949 207.91 290.34 212.931C293.052 216.947 289.104 224.17 286.791 227.279C286.176 228.32 283.795 231.357 279.185 235.181C274.576 239.004 262.807 241.794 257.499 242.711Z" fill="#E7BC85"/>
<path d="M393.172 197.162L385.695 192.497C384.768 192.176 383.028 194.951 382.484 195.022C381.94 195.093 381.521 197.805 381.129 198.189C380.815 198.496 381.956 200.553 382.565 201.543C383.181 202.016 384.567 202.963 385.188 202.97C385.964 202.979 387.517 202.997 389.078 202.238C390.326 201.631 391.061 200.76 391.272 200.4L392.538 198.241L393.172 197.162Z" fill="#E7BC85"/>
<path d="M395.062 194.699L387.506 190.267L388.469 187.483C388.416 187.638 388.266 187.62 388.094 186.314C387.923 185.009 387.945 183.493 387.978 182.898L388.941 180.114L389.815 178.339C390.13 177.929 390.871 176.938 391.313 176.26C391.756 175.582 393.222 174.497 393.9 174.039L395.541 173.048C396.267 172.953 397.873 172.764 398.494 172.771C399.27 172.78 400.046 172.789 402.669 174.216C404.767 175.357 404.68 179.413 404.374 181.299C404.341 181.893 403.989 183.763 402.84 186.482C401.692 189.201 397.177 193.093 395.062 194.699Z" fill="#E7BC85"/>
<path d="M205.572 86.8234L202.022 87.8111C201.661 88.0065 202.025 89.3267 201.893 89.5147C201.761 89.7027 202.479 90.598 202.487 90.8275C202.493 91.011 203.449 91.2403 203.927 91.332C204.247 91.2757 204.931 91.1157 205.108 90.9263C205.33 90.6894 205.774 90.2157 205.981 89.5201C206.147 88.9635 206.086 88.4909 206.034 88.3242L205.726 87.3237L205.572 86.8234Z" fill="#E7BC85"/>
<path d="M205.347 85.5447L201.845 86.6227L201.259 85.5393C201.292 85.5995 201.244 85.6409 200.793 85.3248C200.342 85.0087 199.881 84.5735 199.706 84.3954L199.12 83.3121L198.82 82.541C198.782 82.3279 198.686 81.8197 198.602 81.4917C198.518 81.1637 198.597 80.4048 198.648 80.0664L198.806 79.2804C198.981 79.0298 199.377 78.4811 199.555 78.2916C199.777 78.0548 199.999 77.818 201.18 77.4123C202.124 77.0877 203.351 78.2605 203.845 78.8875C204.02 79.0656 204.497 79.7024 205.011 80.8248C205.525 81.9472 205.449 84.4391 205.347 85.5447Z" fill="#E7BC85"/>
<path d="M284.34 91.2746L283.874 94.8956C283.925 95.2992 285.433 95.4563 285.571 95.6469C285.709 95.8375 286.929 95.5125 287.168 95.5909C287.359 95.6537 287.993 94.8623 288.287 94.4587C288.362 94.1448 288.483 93.4588 288.362 93.2256C288.211 92.9341 287.91 92.3511 287.281 91.9026C286.778 91.5438 286.267 91.4242 286.074 91.4093L284.918 91.3195L284.34 91.2746Z" fill="#E8C18E"/>
<path d="M281.594 91.0054L281.242 94.6152L279.885 94.7497C279.96 94.7422 279.983 94.8013 279.47 95.0972C278.957 95.3931 278.317 95.6539 278.062 95.7473L276.704 95.8817L275.786 95.8704C275.552 95.8256 274.989 95.7246 274.617 95.6798C274.245 95.6349 273.499 95.2798 273.172 95.1079L272.43 94.6706C272.246 94.4165 271.847 93.85 271.726 93.6168C271.576 93.3253 271.425 93.0338 271.5 91.8006C271.561 90.8141 273.277 90.1266 274.128 89.9062C274.383 89.8128 275.236 89.6126 276.604 89.5589C277.972 89.5052 280.501 90.5009 281.594 91.0054Z" fill="#E8C18E"/>
<path d="M135.79 212.122L142.653 228.43C142.994 230.372 136.939 232.935 136.624 233.991C136.309 235.047 130.799 235.013 129.914 235.668C129.205 236.193 125.491 233.275 123.723 231.751C122.982 230.38 121.546 227.329 121.73 226.096C121.96 224.555 122.42 221.472 124.421 218.62C126.022 216.337 127.984 215.16 128.764 214.856L133.448 213.034L135.79 212.122Z" fill="#E7BC85"/>
<path d="M141.274 209.159L147.652 225.552L153.477 224.53C153.153 224.587 153.14 224.89 155.674 225.646C158.208 226.402 161.22 226.841 162.41 226.966L168.234 225.944L172.032 224.778C172.946 224.284 175.146 223.131 176.631 222.47C178.116 221.809 180.736 219.248 181.86 218.051L184.346 215.113C184.766 213.705 185.653 210.581 185.837 209.348C186.067 207.806 186.297 206.265 184.304 200.61C182.71 196.087 174.642 194.967 170.807 194.973C169.617 194.848 165.8 194.95 160.043 196.361C154.286 197.771 145.132 205.48 141.274 209.159Z" fill="#E7BC85"/>
<path d="M356.952 147.271L363.208 153.346C363.737 154.161 361.484 156.491 361.545 157.03C361.605 157.57 359.099 158.617 358.824 159.085C358.604 159.459 356.357 158.852 355.261 158.501C354.66 158.022 353.421 156.915 353.267 156.32C353.074 155.576 352.689 154.089 353.047 152.41C353.333 151.066 353.996 150.153 354.291 149.865L356.065 148.136L356.952 147.271Z" fill="#E7BC85"/>
<path d="M358.868 144.87L364.921 151.077L367.366 149.491C367.23 149.579 367.283 149.719 368.578 149.573C369.873 149.428 371.324 149.046 371.888 148.874L374.333 147.288L375.831 146.027C376.151 145.626 376.926 144.679 377.473 144.093C378.019 143.507 378.714 141.841 378.993 141.081L379.554 139.269C379.474 138.549 379.273 136.961 379.119 136.366C378.927 135.623 378.734 134.879 376.74 132.698C375.145 130.954 371.269 132.001 369.531 132.742C368.967 132.915 367.255 133.697 364.915 135.447C362.576 137.196 359.909 142.458 358.868 144.87Z" fill="#E7BC85"/>
<path d="M183.415 88.2629L187.055 88.0498C187.456 88.117 187.538 89.4698 187.722 89.6036C187.905 89.7374 187.52 90.8058 187.587 91.0229C187.64 91.1967 186.818 91.7179 186.4 91.9568C186.083 92.0066 185.391 92.076 185.164 91.9555C184.88 91.8049 184.313 91.5037 183.896 90.9187C183.563 90.4507 183.468 89.9886 183.463 89.816L183.431 88.7806L183.415 88.2629Z" fill="#E7BC85"/>
<path d="M183.216 86.9935L186.84 86.8805L187.041 85.6783C187.03 85.7451 187.088 85.7686 187.409 85.328C187.73 84.8875 188.023 84.3323 188.129 84.1097L188.33 82.9076L188.365 82.0893C188.331 81.8777 188.258 81.3711 188.232 81.037C188.206 80.703 187.888 80.018 187.733 79.7172L187.333 79.0321C187.088 78.8537 186.542 78.4667 186.315 78.3463C186.031 78.1956 185.747 78.045 184.511 78.0437C183.523 78.0426 182.751 79.5336 182.488 80.2793C182.382 80.5018 182.14 81.2508 182.018 82.4665C181.897 83.6821 182.766 85.991 183.216 86.9935Z" fill="#E7BC85"/>
<path d="M296.138 110.093L297.437 106.677C297.673 106.335 299.097 106.762 299.311 106.644C299.525 106.525 300.462 107.276 300.713 107.296C300.914 107.311 301.107 108.259 301.178 108.73C301.097 109.04 300.88 109.699 300.661 109.862C300.388 110.066 299.842 110.474 299.067 110.639C298.447 110.771 297.933 110.685 297.754 110.626L296.676 110.27L296.138 110.093Z" fill="#E8C18E"/>
<path d="M294.75 109.803L296.145 106.44L294.994 105.808C295.058 105.843 295.106 105.799 294.787 105.341C294.469 104.883 294.02 104.408 293.835 104.228L292.684 103.596L291.858 103.261C291.626 103.212 291.075 103.091 290.721 102.991C290.367 102.891 289.531 102.927 289.157 102.958L288.286 103.07C288 103.228 287.375 103.584 287.157 103.748C286.884 103.952 286.611 104.156 286.094 105.288C285.681 106.193 286.891 107.455 287.548 107.973C287.732 108.153 288.401 108.653 289.599 109.217C290.798 109.78 293.533 109.842 294.75 109.803Z" fill="#E8C18E"/>
<g filter="url(#filter0_i)">
<path d="M194 68L166 60.8055V7.42662L194 0V68Z" fill="#FFA7C7"/>
<path d="M197 62V58.5625H204.822V9.75H197V7H208V62H197Z" fill="#FFA7C7"/>
<path d="M191.077 70L180 5.09091L200.077 10.5455L207 7.27273L205.615 60.1818L195.923 60.7273L195.231 63.4545L191.077 70Z" fill="white"/>
</g>
<path d="M194 68L166 60.8055V7.42662L194 0V68Z" fill="#C4F1FF"/>
<path d="M197 62V58.5625H204.822V9.75H197V7H208V62H197Z" fill="#C4F1FF"/>
<defs>
<filter id="filter0_i" x="166" y="0" width="46" height="74" filterUnits="userSpaceOnUse" color-interpolation-filters="sRGB">
<feFlood flood-opacity="0" result="BackgroundImageFix"/>
<feBlend mode="normal" in="SourceGraphic" in2="BackgroundImageFix" result="shape"/>
<feColorMatrix in="SourceAlpha" type="matrix" values="0 0 0 0 0 0 0 0 0 0 0 0 0 0 0 0 0 0 127 0" result="hardAlpha"/>
<feOffset dx="20" dy="20"/>
<feGaussianBlur stdDeviation="2"/>
<feComposite in2="hardAlpha" operator="arithmetic" k2="-1" k3="1"/>
<feColorMatrix type="matrix" values="0 0 0 0 0 0 0 0 0 0 0 0 0 0 0 0 0 0 0.25 0"/>
<feBlend mode="normal" in2="shape" result="effect1_innerShadow"/>
</filter>
</defs>
</svg>
