<svg width="420" height="633" viewBox="0 0 420 633" fill="none" xmlns="http://www.w3.org/2000/svg">
<rect x="82.4287" y="236.374" width="9.36956" height="9.36956" transform="rotate(25.6407 82.4287 236.374)" fill="#5C92A3"/>
<rect x="372.054" y="144" width="9.36956" height="9.36956" transform="rotate(25.6407 372.054 144)" fill="#5C92A3"/>
<rect x="328.054" y="243" width="9.36956" height="9.36956" transform="rotate(25.6407 328.054 243)" fill="#5C92A3"/>
<rect x="311.543" y="42.5136" width="6.71669" height="6.71669" transform="rotate(-11.8048 311.543 42.5136)" fill="#5C92A3"/>
<rect x="54.9944" y="94" width="9.36956" height="9.36956" transform="rotate(73.7312 54.9944 94)" fill="#5C92A3"/>
<circle cx="50.5" cy="174.5" r="4" stroke="white"/>
<circle cx="349.5" cy="64.5" r="4" stroke="white"/>
<circle cx="50.5" cy="64.5" r="4" stroke="white"/>
<circle cx="207.5" cy="4.5" r="4" stroke="white"/>
<circle cx="349.5" cy="174.5" r="4" stroke="white"/>
<rect x="63.7277" y="525.679" width="8.87445" height="8.87445" transform="rotate(77.1977 63.7277 525.679)" fill="#5C92A3"/>
<rect x="103.38" y="421.026" width="6.36177" height="6.36177" transform="rotate(39.7523 103.38 421.026)" fill="#5C92A3"/>
<circle cx="109.422" cy="462.131" r="3.76221" transform="rotate(51.557 109.422 462.131)" stroke="white"/>
<circle cx="70.3113" cy="321.457" r="3.76221" transform="rotate(51.557 70.3113 321.457)" stroke="white"/>
<circle cx="27.8196" cy="526.908" r="3.76221" transform="rotate(51.557 27.8196 526.908)" stroke="white"/>
<rect x="340.052" y="302.914" width="8.87445" height="8.87445" transform="rotate(146.424 340.052 302.914)" fill="#5C92A3"/>
<rect x="274.825" y="583.365" width="8.87445" height="8.87445" transform="rotate(146.424 274.825 583.365)" fill="#5C92A3"/>
<path d="M221.596 484.572L214.202 489.48L209.294 482.086L216.688 477.178L221.596 484.572Z" fill="#5C92A3"/>
<rect x="343.739" y="479.32" width="6.36177" height="6.36177" transform="rotate(108.978 343.739 479.32)" fill="#5C92A3"/>
<circle cx="405.877" cy="306.926" r="3.76221" transform="rotate(120.783 405.877 306.926)" stroke="white"/>
<circle cx="350.448" cy="603.549" r="3.76221" transform="rotate(120.783 350.448 603.549)" stroke="white"/>
<circle cx="362.94" cy="406.228" r="3.76221" transform="rotate(120.783 362.94 406.228)" stroke="white"/>
</svg>
