<svg width="420" height="707" viewBox="0 0 420 707" fill="none" xmlns="http://www.w3.org/2000/svg">
<rect x="89.4287" y="293.374" width="9.36956" height="9.36956" transform="rotate(25.6407 89.4287 293.374)" fill="#5C92A3"/>
<rect x="379.054" y="201" width="9.36956" height="9.36956" transform="rotate(25.6407 379.054 201)" fill="#5C92A3"/>
<rect x="335.054" y="300" width="9.36956" height="9.36956" transform="rotate(25.6407 335.054 300)" fill="#5C92A3"/>
<rect x="318.543" y="99.5136" width="6.71669" height="6.71669" transform="rotate(-11.8048 318.543 99.5136)" fill="#5C92A3"/>
<rect x="61.9944" y="151" width="9.36956" height="9.36956" transform="rotate(73.7312 61.9944 151)" fill="#5C92A3"/>
<circle cx="57.5" cy="231.5" r="4" stroke="white"/>
<circle cx="356.5" cy="121.5" r="4" stroke="white"/>
<circle cx="57.5" cy="121.5" r="4" stroke="white"/>
<circle cx="214.5" cy="61.5" r="4" stroke="white"/>
<circle cx="356.5" cy="231.5" r="4" stroke="white"/>
<circle cx="63.5" cy="487.5" r="4" stroke="white"/>
<circle cx="334.5" cy="523.5" r="4" stroke="white"/>
<rect x="74.3706" y="658.337" width="8.87445" height="8.87445" transform="rotate(77.1977 74.3706 658.337)" fill="#5C92A3"/>
<rect x="24.1049" y="368.027" width="8.87445" height="8.87445" transform="rotate(125.288 24.1049 368.027)" fill="#5C92A3"/>
<rect x="76.3706" y="551.127" width="8.87445" height="8.87445" transform="rotate(125.288 76.3706 551.127)" fill="#5C92A3"/>
<rect x="87.3705" y="433.127" width="8.87445" height="8.87445" transform="rotate(125.288 87.3705 433.127)" fill="#5C92A3"/>
<rect x="35.3705" y="472.127" width="8.87445" height="8.87445" transform="rotate(125.288 35.3705 472.127)" fill="#5C92A3"/>
<rect x="397.371" y="478.127" width="8.87445" height="8.87445" transform="rotate(125.288 397.371 478.127)" fill="#5C92A3"/>
<rect x="325.371" y="476.127" width="8.87445" height="8.87445" transform="rotate(125.288 325.371 476.127)" fill="#5C92A3"/>
<rect x="387.371" y="539.127" width="8.87445" height="8.87445" transform="rotate(125.288 387.371 539.127)" fill="#5C92A3"/>
<rect x="345.371" y="600.127" width="8.87445" height="8.87445" transform="rotate(125.288 345.371 600.127)" fill="#5C92A3"/>
<rect x="40.3706" y="262.127" width="8.87445" height="8.87445" transform="rotate(125.288 40.3706 262.127)" fill="#5C92A3"/>
<rect x="396.371" y="274.127" width="8.87445" height="8.87445" transform="rotate(125.288 396.371 274.127)" fill="#5C92A3"/>
<rect x="216.371" y="131.127" width="8.87445" height="8.87445" transform="rotate(125.288 216.371 131.127)" fill="#5C92A3"/>
<rect x="116.371" y="61.1267" width="8.87445" height="8.87445" transform="rotate(125.288 116.371 61.1267)" fill="#5C92A3"/>
<circle cx="43.3424" cy="347.321" r="3.76221" transform="rotate(51.557 43.3424 347.321)" stroke="white"/>
<circle cx="29.9883" cy="578.988" r="3.76221" transform="rotate(51.557 29.9883 578.988)" stroke="white"/>
<circle cx="137.5" cy="146.5" r="4" stroke="white"/>
<circle cx="281.5" cy="146.5" r="4" stroke="white"/>
<circle cx="63.5" cy="40.5" r="4" stroke="white"/>
<circle cx="281.5" cy="66.5" r="4" stroke="white"/>
<circle cx="137.5" cy="93.5" r="4" stroke="white"/>
<circle cx="356.5" cy="52.5" r="4" stroke="white"/>
<circle cx="164.5" cy="31.5" r="4" stroke="white"/>
<circle cx="351.5" cy="449.5" r="4" stroke="white"/>
<circle cx="114.5" cy="541.5" r="4" stroke="white"/>
</svg>
