<svg width="420" height="91" viewBox="0 0 420 91" fill="none" xmlns="http://www.w3.org/2000/svg">
<path d="M87.0831 40C75.0831 40 26.2498 8 3.58311 0C-10.2502 19.6667 -30.7169 77.6 -3.91689 88C29.5831 101 110.083 63 142.583 57.5C175.083 52 209.083 72 242.583 81C276.083 90 303.583 63 339.083 57.5C367.483 53.1 406.916 71.3333 423.083 81C430.916 75.3333 441.883 59 423.083 39C404.283 19 383.25 16.3333 375.083 17.5L359.583 18.5C354.383 16.9 340.416 27.1667 334.083 32.5C331.916 34.5 325.183 38.9 315.583 40.5C305.983 42.1 282.916 35.8333 272.583 32.5L224.583 14.5C217.583 12 199.783 7.3 184.583 8.49999C178.583 -1.10001 136.083 24.1667 115.583 38C111.083 38.6667 99.0831 40 87.0831 40Z" fill="#B0E0EE"/>
</svg>
