<svg width="420" height="711" viewBox="0 0 420 711" fill="none" xmlns="http://www.w3.org/2000/svg">
<path d="M11.5189 335.716C11.8024 335.721 12.0988 335.615 12.3003 335.422L12.7297 335.012L14.2023 336.886L14.8027 339.023C24.8266 347.022 33.501 346.011 33.8838 345.96C34.1154 345.93 34.3225 345.827 34.4802 345.676C34.6379 345.525 34.7463 345.326 34.7804 345.102C34.8108 344.907 35.4787 340.286 32.6054 333.908C32.4761 333.621 32.2172 333.407 31.9043 333.329L29.9384 332.837L30.7964 332.016C31.1374 331.69 31.2069 331.181 30.9674 330.78C29.4077 328.168 27.3928 325.639 24.9786 323.264C22.5644 320.888 19.9871 318.898 17.3177 317.348C16.9073 317.11 16.3825 317.171 16.0415 317.497L15.1836 318.318L14.7043 316.404C14.628 316.099 14.4115 315.845 14.1171 315.715C7.58563 312.839 2.81541 313.424 2.61501 313.45C2.38344 313.48 2.17671 313.583 2.01902 313.734C1.86133 313.885 1.7526 314.084 1.71842 314.309C1.65465 314.722 0.276876 324.554 10.7733 335.394C10.9677 335.594 11.2368 335.71 11.5189 335.716Z" fill="#D7630F"/>
<path d="M10.7732 335.394C10.9676 335.594 11.2367 335.71 11.5188 335.715C11.8023 335.721 12.0987 335.615 12.3003 335.422L12.7296 335.011L14.2022 336.886L14.8026 339.023C24.8265 347.022 33.5009 346.01 33.8837 345.959C34.1153 345.929 34.3224 345.827 34.4801 345.676L2.01893 313.734C1.86124 313.885 1.75251 314.084 1.71833 314.308C1.65448 314.722 0.27678 324.554 10.7732 335.394Z" fill="#BDA105"/>
<path d="M13.2781 337.762C13.79 338.213 14.2967 338.619 14.8028 339.023L14.8572 331.124C14.8611 330.56 14.3943 330.101 13.814 330.097C13.2338 330.093 12.7607 330.546 12.7568 331.109L12.7299 335.012L12.7267 335.472C12.7226 336.06 12.8226 337.364 13.2781 337.762Z" fill="#704025"/>
<path d="M9.64028 326.041L9.66307 322.736L20.8617 333.75L20.8249 339.094C20.821 339.657 21.2879 340.117 21.8681 340.121C22.4483 340.125 22.9215 339.672 22.9254 339.109L22.9482 335.803L27.0926 339.858C27.5004 340.26 28.1648 340.264 28.578 339.869C28.9912 339.473 28.9958 338.828 28.588 338.427L24.4666 334.418L27.8726 334.441C28.4529 334.445 28.926 333.992 28.9299 333.429C28.9338 332.866 28.4669 332.406 27.8867 332.402L22.3802 332.365L17.0891 327.163L20.4952 327.186C21.0754 327.19 21.5485 326.737 21.5524 326.174C21.5563 325.611 21.0895 325.151 20.5093 325.147L15.0027 325.109L1.03113 311.311C0.623325 310.91 -0.0410611 310.906 -0.454288 311.301C-0.867584 311.697 -0.872029 312.342 -0.464226 312.743L7.57661 320.683L7.53977 326.027C7.53589 326.59 8.00275 327.05 8.58296 327.054C9.16325 327.058 9.6364 326.605 9.64028 326.041Z" fill="#BDA105"/>
<path d="M-0.46433 312.743L7.5765 320.683L7.53966 326.027C7.53578 326.59 8.00264 327.049 8.58286 327.053C9.16307 327.057 9.63622 326.604 9.6401 326.041L9.66289 322.736L20.8616 333.75L20.8247 339.094C20.8208 339.657 21.2877 340.116 21.8679 340.12C22.4481 340.124 22.9214 339.672 22.9253 339.108L22.9481 335.803L27.0925 339.858C27.5003 340.259 28.1647 340.264 28.5779 339.868L-0.454393 311.301C-0.867688 311.697 -0.872133 312.341 -0.46433 312.743Z" fill="#704025"/>
<path d="M381.519 572.715C381.802 572.721 382.099 572.615 382.3 572.422L382.73 572.011L384.202 573.886L384.803 576.023C394.827 584.022 403.501 583.011 403.884 582.96C404.115 582.93 404.322 582.827 404.48 582.676C404.638 582.525 404.746 582.326 404.78 582.101C404.811 581.907 405.479 577.286 402.605 570.908C402.476 570.621 402.217 570.407 401.904 570.329L399.938 569.837L400.796 569.016C401.137 568.69 401.207 568.181 400.967 567.78C399.408 565.168 397.393 562.639 394.979 560.264C392.564 557.888 389.987 555.898 387.318 554.348C386.907 554.11 386.382 554.171 386.042 554.497L385.184 555.318L384.704 553.404C384.628 553.099 384.411 552.845 384.117 552.715C377.586 549.839 372.815 550.423 372.615 550.45C372.383 550.48 372.177 550.583 372.019 550.734C371.861 550.885 371.753 551.084 371.718 551.308C371.655 551.722 370.277 561.554 380.773 572.394C380.968 572.594 381.237 572.71 381.519 572.715Z" fill="#D7630F"/>
<path d="M380.774 572.394C380.968 572.594 381.237 572.71 381.519 572.715C381.803 572.721 382.099 572.615 382.301 572.422L382.73 572.011L384.203 573.885L384.803 576.023C394.827 584.022 403.501 583.01 403.884 582.959C404.116 582.929 404.323 582.827 404.481 582.676L372.019 550.734C371.862 550.885 371.753 551.084 371.719 551.308C371.655 551.722 370.277 561.554 380.774 572.394Z" fill="#BDA105"/>
<path d="M383.278 574.762C383.79 575.213 384.297 575.619 384.803 576.023L384.857 568.123C384.861 567.56 384.394 567.101 383.814 567.097C383.234 567.093 382.761 567.545 382.757 568.109L382.73 572.011L382.727 572.472C382.723 573.059 382.823 574.363 383.278 574.762Z" fill="#704025"/>
<path d="M379.641 563.041L379.663 559.735L390.862 570.75L390.825 576.094C390.821 576.657 391.288 577.116 391.868 577.12C392.449 577.124 392.922 576.671 392.926 576.108L392.948 572.803L397.093 576.858C397.501 577.259 398.165 577.264 398.578 576.868C398.991 576.473 398.996 575.828 398.588 575.426L394.467 571.417L397.873 571.441C398.453 571.445 398.926 570.992 398.93 570.429C398.934 569.865 398.467 569.406 397.887 569.402L392.38 569.364L387.089 564.162L390.495 564.186C391.076 564.19 391.549 563.737 391.553 563.174C391.557 562.611 391.09 562.151 390.51 562.147L385.003 562.109L371.031 548.311C370.624 547.91 369.959 547.905 369.546 548.301C369.133 548.696 369.128 549.341 369.536 549.742L377.577 557.682L377.54 563.027C377.536 563.59 378.003 564.049 378.583 564.053C379.163 564.057 379.637 563.604 379.641 563.041Z" fill="#BDA105"/>
<path d="M369.536 549.742L377.577 557.682L377.54 563.026C377.536 563.589 378.003 564.049 378.583 564.053C379.164 564.057 379.637 563.604 379.641 563.041L379.663 559.735L390.862 570.749L390.825 576.093C390.821 576.657 391.288 577.116 391.868 577.12C392.449 577.124 392.922 576.671 392.926 576.108L392.949 572.802L397.093 576.858C397.501 577.259 398.165 577.263 398.578 576.868L369.546 548.3C369.133 548.696 369.128 549.341 369.536 549.742Z" fill="#704025"/>
<path d="M105.54 73.0828L96.6924 72.8213C90.042 72.6249 84.5973 67.8774 83.2555 61.6528C82.4202 57.7779 81.3744 53.9515 80.0106 50.2296L79.6639 49.2835L82.2438 48.8462C85.4271 48.3066 88.5419 48.2518 91.4079 48.7535L105.54 73.0828Z" fill="#D7630F"/>
<path d="M95.1192 41.1211L92.6063 40.3917C96.7392 45.4034 96.553 52.6425 98.4908 57.8563C101.88 66.9742 105.54 73.0828 105.54 73.0828L107.324 69.6572C115.25 54.4316 107.28 44.6514 95.1192 41.1211Z" fill="#704025"/>
<path d="M92.6063 40.3917L92.5065 41.3944C92.2606 43.8651 91.8844 46.3185 91.4079 48.7535L91.4079 48.7535C91.1238 50.2059 90.8038 51.6517 90.4545 53.0908C88.9525 59.2789 91.7872 65.9231 97.6887 68.9953L105.54 73.0828C105.54 73.0828 103.967 54.1678 92.6063 40.3917Z" fill="#BDA105"/>
<path d="M341.541 648.083L332.693 647.821C326.042 647.625 320.598 642.877 319.256 636.653C318.42 632.778 317.375 628.951 316.011 625.23L315.664 624.284L318.244 623.846C321.427 623.307 324.542 623.252 327.408 623.753L341.541 648.083Z" fill="#D7630F"/>
<path d="M331.12 616.121L328.607 615.392C332.74 620.403 332.554 627.643 334.492 632.856C337.88 641.974 341.541 648.083 341.541 648.083L343.324 644.657C351.251 629.432 343.281 619.651 331.12 616.121Z" fill="#704025"/>
<path d="M328.607 615.392L328.507 616.395C328.261 618.865 327.885 621.319 327.409 623.754L327.409 623.754C327.124 625.206 326.805 626.652 326.455 628.091C324.953 634.279 327.788 640.923 333.689 643.996L341.541 648.083C341.541 648.083 339.968 629.168 328.607 615.392Z" fill="#BDA105"/>
<path d="M305.166 25.2706L313.162 21.4719C319.171 18.6166 326.181 20.3618 330.212 25.2914C332.721 28.3601 335.395 31.2897 338.305 33.9814L339.045 34.6656L336.947 36.2304C334.359 38.1612 331.612 39.6291 328.832 40.4885L305.166 25.2706Z" fill="#D7630F"/>
<path d="M329.006 48.9735L331.575 48.4779C325.613 45.8998 322.48 39.3709 318.379 35.6127C311.208 29.0403 305.166 25.2706 305.166 25.2706L305.14 29.1325C305.021 46.2973 316.572 51.372 329.006 48.9735Z" fill="#704025"/>
<path d="M331.575 48.4779L331.207 47.5398C330.3 45.2284 329.517 42.8732 328.832 40.4884L328.832 40.4884C328.423 39.0661 328.049 37.6334 327.704 36.1931C326.222 30.0004 320.671 25.3775 314.018 25.3316L305.166 25.2706C305.166 25.2707 315.186 41.3911 331.575 48.4779Z" fill="#BDA105"/>
<path d="M398.772 204.438L406.714 208.249C412.684 211.114 419.717 209.509 423.815 204.759C426.365 201.802 429.079 198.982 432.026 196.398L432.774 195.742L430.699 194.188C428.137 192.271 425.41 190.802 422.642 189.927L398.772 204.438Z" fill="#00AA95"/>
<path d="M422.932 181.659L425.494 182.177C419.497 184.609 416.276 190.93 412.125 194.537C404.865 200.846 398.772 204.438 398.772 204.438L398.798 200.673C398.913 183.941 410.532 179.152 422.932 181.659Z" fill="#00CC76"/>
<path d="M425.494 182.177L425.114 183.086C424.175 185.327 423.36 187.612 422.643 189.927L422.643 189.927C422.214 191.308 421.821 192.699 421.457 194.098C419.89 200.114 414.277 204.545 407.624 204.499L398.772 204.438C398.772 204.438 409.01 188.861 425.494 182.177Z" fill="#A5E887"/>
<path d="M210.035 690.528L217.978 694.34C223.948 697.205 230.981 695.599 235.079 690.849C237.629 687.892 240.343 685.073 243.289 682.489L244.038 681.832L241.963 680.278C239.401 678.361 236.674 676.893 233.906 676.017L210.035 690.528Z" fill="#00AA95"/>
<path d="M234.196 667.749L236.758 668.267C230.761 670.699 227.54 677.02 223.389 680.628C216.129 686.936 210.036 690.528 210.036 690.528L210.062 686.764C210.177 670.031 221.796 665.242 234.196 667.749Z" fill="#00CC76"/>
<path d="M236.758 668.268L236.377 669.177C235.439 671.417 234.624 673.703 233.907 676.018L233.906 676.018C233.478 677.398 233.085 678.79 232.721 680.189C231.154 686.205 225.541 690.635 218.888 690.59L210.036 690.529C210.036 690.528 220.274 674.952 236.758 668.268Z" fill="#A5E887"/>
<path d="M19.6407 174.103L27.5836 177.915C33.5536 180.779 40.5865 179.174 44.6838 174.424C47.2344 171.467 49.9485 168.648 52.8947 166.064L53.6436 165.407L51.5678 163.853C49.0065 161.936 46.2791 160.467 43.5112 159.592L19.6407 174.103Z" fill="#00AA95"/>
<path d="M43.8009 151.324L46.3632 151.842C40.3662 154.274 37.145 160.595 32.9936 164.202C25.7338 170.511 19.641 174.103 19.641 174.103L19.6669 170.338C19.7823 153.606 31.4009 148.817 43.8009 151.324Z" fill="#00CC76"/>
<path d="M46.3632 151.842L45.9824 152.751C45.0442 154.992 44.2292 157.277 43.5115 159.592L43.5115 159.592C43.0834 160.973 42.6899 162.364 42.3256 163.764C40.759 169.78 35.1459 174.21 28.4927 174.164L19.641 174.103C19.641 174.103 29.8786 158.527 46.3632 151.842Z" fill="#A5E887"/>
<path d="M381.777 697.653C381.209 693.899 379.218 690.757 376.526 688.822C374.528 691.467 373.556 695.058 374.124 698.811C374.683 702.504 376.619 705.605 379.245 707.547C379.317 707.6 379.419 707.584 379.472 707.512C381.405 704.88 382.336 701.345 381.777 697.653Z" fill="#8BC727"/>
<path d="M377.71 693.389C378.473 694.772 379.014 696.332 379.269 698.015C379.728 701.05 379.18 703.978 377.897 706.387C378.322 706.808 378.772 707.197 379.245 707.547C379.317 707.6 379.419 707.584 379.472 707.512C381.405 704.88 382.336 701.345 381.777 697.653C381.252 694.179 379.506 691.23 377.116 689.276L377.71 693.389L377.71 693.389Z" fill="#81B823"/>
<path d="M384.031 680.658C381.851 679.051 379.261 678.47 376.926 678.852C377.253 681.194 378.574 683.496 380.754 685.103C382.899 686.684 385.441 687.272 387.745 686.927C387.808 686.918 387.852 686.858 387.842 686.795C387.489 684.492 386.176 682.238 384.031 680.658Z" fill="#8BC727"/>
<path d="M380.201 680.675C381.154 680.993 382.083 681.469 382.948 682.106C384.711 683.406 385.912 685.159 386.48 687.022C386.907 687.021 387.33 686.989 387.745 686.927C387.808 686.918 387.852 686.858 387.842 686.795C387.489 684.492 386.176 682.239 384.031 680.658C382.073 679.214 379.784 678.599 377.647 678.766L380.201 680.675Z" fill="#81B823"/>
<path d="M387.046 689.969C384.979 688.446 382.524 687.895 380.312 688.257C380.621 690.478 381.873 692.66 383.94 694.184C385.973 695.682 388.382 696.239 390.567 695.912C390.626 695.903 390.668 695.847 390.659 695.787C390.325 693.604 389.08 691.468 387.046 689.969Z" fill="#8BC727"/>
<path d="M383.489 690.009C384.366 690.31 385.222 690.753 386.02 691.341C387.692 692.573 388.83 694.236 389.368 696.001C389.773 696 390.174 695.97 390.568 695.911C390.627 695.902 390.669 695.846 390.659 695.786C390.325 693.603 389.08 691.467 387.047 689.968C385.202 688.608 383.047 688.024 381.032 688.172L383.489 690.009Z" fill="#81B823"/>
<path d="M371.818 692.586C373.903 689.757 374.656 686.396 374.161 683.367C371.121 683.79 368.134 685.505 366.048 688.334C363.997 691.118 363.234 694.416 363.682 697.406C363.694 697.488 363.771 697.544 363.853 697.532C366.842 697.074 369.766 695.37 371.818 692.586Z" fill="#8BC727"/>
<path d="M363.853 697.532C366.842 697.074 369.766 695.37 371.818 692.586C373.736 689.983 374.526 686.93 374.255 684.1L371.919 687.225C371.51 688.597 370.852 689.94 369.938 691.181C368.252 693.469 365.976 695.027 363.559 695.764C363.56 696.318 363.601 696.867 363.682 697.406C363.694 697.488 363.771 697.544 363.853 697.532Z" fill="#81B823"/>
<path d="M366.956 693.105C367.158 693.255 367.443 693.214 367.593 693.013L375.255 682.762L377.941 701.34C377.976 701.589 378.207 701.761 378.456 701.725C378.704 701.689 378.877 701.459 378.841 701.21L376.647 686.032L386.888 693.686C387.089 693.836 387.374 693.795 387.524 693.594C387.675 693.392 387.633 693.107 387.432 692.957L376.463 684.758L375.533 678.321L383.878 684.558C384.079 684.709 384.364 684.668 384.514 684.466C384.665 684.265 384.624 683.98 384.422 683.83L375.198 676.935C375.105 676.865 374.985 676.831 374.86 676.849C374.612 676.885 374.439 677.116 374.475 677.364L375.071 681.488L366.864 692.468C366.714 692.669 366.755 692.954 366.956 693.105Z" fill="#09A76D"/>
<path d="M41.2212 414.739C40.6715 418.495 41.6611 422.081 43.6725 424.716C46.3546 422.768 48.3305 419.616 48.8803 415.86C49.4211 412.165 48.472 408.634 46.5259 406.012C46.4728 405.94 46.3707 405.925 46.2992 405.979C43.6832 407.933 41.7621 411.044 41.2212 414.739Z" fill="#8BC727"/>
<path d="M43.87 420.003C43.5439 418.457 43.4803 416.807 43.7268 415.123C44.1713 412.086 45.5488 409.444 47.4777 407.514C47.1946 406.987 46.8768 406.485 46.5261 406.012C46.473 405.94 46.3708 405.925 46.2994 405.979C43.6834 407.933 41.7623 411.044 41.2215 414.739C40.7127 418.215 41.5231 421.545 43.2407 424.11L43.8701 420.003L43.87 420.003Z" fill="#81B823"/>
<path d="M34.1151 430.341C35.7328 432.513 38.0413 433.823 40.3855 434.138C40.7559 431.802 40.1625 429.215 38.5449 427.042C36.9534 424.905 34.6933 423.603 32.3884 423.261C32.3254 423.252 32.2664 423.296 32.2573 423.359C31.9236 425.665 32.5236 428.203 34.1151 430.341Z" fill="#8BC727"/>
<path d="M37.7836 431.44C36.9653 430.858 36.2146 430.132 35.5728 429.27C34.2648 427.514 33.627 425.486 33.6265 423.539C33.2176 423.416 32.8038 423.323 32.3884 423.261C32.3254 423.252 32.2664 423.296 32.2573 423.359C31.9236 425.665 32.5236 428.203 34.1151 430.341C35.568 432.292 37.5781 433.547 39.6709 434.01L37.7836 431.44Z" fill="#81B823"/>
<path d="M33.9429 420.555C35.4764 422.614 37.6646 423.856 39.8868 424.154C40.2379 421.939 39.6755 419.487 38.142 417.428C36.6334 415.402 34.491 414.167 32.3061 413.844C32.2464 413.835 32.1904 413.877 32.1818 413.936C31.8655 416.122 32.4342 418.529 33.9429 420.555Z" fill="#8BC727"/>
<path d="M37.3571 421.553C36.6055 421.009 35.9156 420.336 35.3235 419.541C34.0836 417.876 33.4791 415.953 33.4785 414.108C33.0909 413.991 32.6986 413.903 32.3049 413.845C32.2452 413.836 32.1892 413.877 32.1805 413.937C31.8642 416.123 32.433 418.529 33.9417 420.555C35.3108 422.394 37.2019 423.58 39.173 424.026L37.3571 421.553Z" fill="#81B823"/>
<path d="M49.2732 422.487C46.454 424.586 44.7543 427.582 44.346 430.624C47.3774 431.105 50.7345 430.335 53.5537 428.236C56.3271 426.17 58.0172 423.237 58.46 420.246C58.4721 420.165 58.4151 420.088 58.3333 420.076C55.3408 419.643 52.0466 420.422 49.2732 422.487Z" fill="#8BC727"/>
<path d="M58.3333 420.076C55.3409 419.643 52.0467 420.422 49.2733 422.487C46.6797 424.419 45.0344 427.109 44.4697 429.896L47.6147 427.586C48.4057 426.393 49.426 425.299 50.6623 424.379C52.9419 422.681 55.573 421.854 58.0995 421.853C58.2594 421.323 58.3803 420.785 58.4601 420.246C58.4722 420.165 58.4151 420.088 58.3333 420.076Z" fill="#81B823"/>
<path d="M54.0751 423.407C53.9263 423.205 53.6416 423.161 53.4391 423.31L43.1231 430.884L45.9663 412.329C46.0043 412.081 45.8338 411.849 45.5855 411.811C45.3372 411.773 45.105 411.943 45.0669 412.192L42.7441 427.351L35.1775 417.046C35.0288 416.843 34.744 416.8 34.5416 416.948C34.3391 417.097 34.2954 417.382 34.4441 417.584L42.5492 428.623L41.5642 435.051L35.3981 426.654C35.2494 426.451 34.9647 426.408 34.7622 426.556C34.5597 426.705 34.5161 426.99 34.6648 427.192L41.4808 436.475C41.5496 436.569 41.6544 436.637 41.7786 436.656C42.027 436.694 42.2592 436.523 42.2972 436.275L42.9283 432.156L53.9777 424.043C54.1801 423.894 54.2237 423.61 54.0751 423.407Z" fill="#704025"/>
<path d="M377.12 307.693C378.514 304.163 378.371 300.445 377.015 297.42C373.959 298.703 371.314 301.32 369.92 304.851C368.549 308.324 368.665 311.978 369.96 314.976C369.995 315.058 370.091 315.096 370.173 315.06C373.167 313.756 375.748 311.167 377.12 307.693Z" fill="#BDA105"/>
<path d="M375.745 301.963C375.709 303.543 375.394 305.163 374.769 306.747C373.641 309.602 371.696 311.858 369.377 313.296C369.532 313.874 369.727 314.436 369.96 314.976C369.995 315.058 370.091 315.096 370.173 315.06C373.167 313.756 375.748 311.167 377.12 307.694C378.41 304.426 378.383 300.999 377.297 298.109L375.745 301.963L375.745 301.963Z" fill="#D7630F"/>
<path d="M387.606 294.13C386.528 291.646 384.58 289.843 382.37 289C381.475 291.19 381.461 293.844 382.539 296.329C383.6 298.773 385.502 300.558 387.668 301.417C387.727 301.441 387.794 301.411 387.818 301.352C388.67 299.183 388.666 296.575 387.606 294.13Z" fill="#BDA105"/>
<path d="M384.286 292.221C384.949 292.975 385.514 293.853 385.942 294.839C386.813 296.848 386.971 298.968 386.526 300.863C386.896 301.077 387.277 301.262 387.668 301.417C387.727 301.441 387.794 301.411 387.818 301.352C388.67 299.183 388.666 296.575 387.606 294.13C386.637 291.899 384.968 290.218 383.036 289.288L384.286 292.221Z" fill="#D7630F"/>
<path d="M385.535 303.696C384.513 301.341 382.667 299.632 380.572 298.833C379.724 300.909 379.71 303.425 380.732 305.78C381.738 308.097 383.541 309.789 385.594 310.604C385.65 310.626 385.714 310.598 385.736 310.542C386.544 308.486 386.541 306.014 385.535 303.696Z" fill="#BDA105"/>
<path d="M382.439 301.944C383.047 302.646 383.564 303.458 383.959 304.368C384.785 306.272 384.934 308.282 384.513 310.078C384.863 310.281 385.225 310.457 385.595 310.603C385.651 310.626 385.715 310.598 385.737 310.542C386.545 308.486 386.542 306.013 385.536 303.696C384.624 301.593 383.054 300.006 381.237 299.121L382.439 301.944Z" fill="#D7630F"/>
<path d="M371.053 298.309C374.278 296.91 376.617 294.383 377.71 291.515C374.869 290.354 371.425 290.336 368.2 291.735C365.028 293.111 362.712 295.579 361.597 298.39C361.567 298.467 361.605 298.554 361.682 298.585C364.496 299.69 367.881 299.686 371.053 298.309Z" fill="#BDA105"/>
<path d="M361.682 298.585C364.496 299.69 367.881 299.686 371.053 298.309C374.02 297.022 376.236 294.78 377.423 292.196L373.834 293.725C372.791 294.706 371.547 295.537 370.133 296.15C367.526 297.281 364.775 297.485 362.316 296.908C362.039 297.388 361.798 297.883 361.597 298.39C361.567 298.467 361.605 298.554 361.682 298.585Z" fill="#D7630F"/>
<path d="M366.589 296.316C366.687 296.547 366.955 296.655 367.186 296.556L378.961 291.541L371.95 308.954C371.856 309.188 371.969 309.453 372.202 309.546C372.435 309.64 372.7 309.527 372.794 309.294L378.521 295.068L383.531 306.83C383.629 307.061 383.897 307.169 384.128 307.071C384.359 306.972 384.467 306.705 384.368 306.474L379.002 293.874L381.431 287.841L385.513 297.426C385.612 297.657 385.879 297.765 386.11 297.666C386.341 297.568 386.449 297.301 386.35 297.07L381.838 286.474C381.792 286.367 381.706 286.277 381.589 286.23C381.356 286.137 381.091 286.249 380.997 286.483L379.441 290.348L366.829 295.719C366.598 295.817 366.491 296.085 366.589 296.316Z" fill="#704025"/>
<path d="M210.487 14.4585C208.871 17.8936 208.777 21.6123 209.938 24.7175C213.07 23.6315 215.875 21.1885 217.491 17.7535C219.081 14.3741 219.197 10.7201 218.095 7.64592C218.065 7.56192 217.972 7.51795 217.888 7.54835C214.817 8.65989 212.077 11.0791 210.487 14.4585Z" fill="#BDA105"/>
<path d="M211.494 20.2643C211.63 18.6907 212.048 17.0932 212.773 15.5528C214.079 12.7752 216.164 10.6471 218.57 9.35971C218.452 8.77302 218.294 8.19991 218.095 7.64589C218.065 7.5619 217.972 7.51793 217.888 7.54832C214.817 8.65986 212.076 11.079 210.487 14.4584C208.991 17.6373 208.801 21.0588 209.7 24.0124L211.494 20.2643L211.494 20.2643Z" fill="#D7630F"/>
<path d="M199.159 27.3269C200.077 29.8752 201.906 31.7985 204.058 32.7798C205.09 30.6518 205.273 28.0039 204.355 25.4555C203.453 22.9485 201.668 21.0464 199.561 20.051C199.503 20.0238 199.434 20.0488 199.407 20.1064C198.419 22.2165 198.256 24.8198 199.159 27.3269Z" fill="#BDA105"/>
<path d="M202.351 29.4431C201.737 28.6488 201.229 27.7366 200.865 26.7255C200.123 24.6649 200.101 22.5395 200.665 20.6762C200.309 20.4396 199.94 20.2304 199.561 20.051C199.503 20.0238 199.434 20.0488 199.407 20.1064C198.419 22.2164 198.256 24.8198 199.159 27.3269C199.983 29.6156 201.543 31.3997 203.411 32.4504L202.351 29.4431Z" fill="#D7630F"/>
<path d="M201.834 17.9122C202.704 20.328 204.438 22.1511 206.478 23.0813C207.456 21.064 207.63 18.554 206.76 16.1383C205.904 13.7617 204.212 11.9587 202.215 11.0151C202.16 10.9893 202.095 11.013 202.069 11.0676C201.132 13.0678 200.978 15.5357 201.834 17.9122Z" fill="#BDA105"/>
<path d="M204.812 19.8578C204.25 19.1192 203.785 18.2752 203.449 17.3425C202.746 15.3892 202.725 13.3743 203.26 11.6081C202.923 11.3839 202.573 11.1855 202.213 11.0155C202.159 10.9897 202.093 11.0134 202.068 11.068C201.131 13.0682 200.977 15.536 201.833 17.9126C202.609 20.0693 204.075 21.7531 205.832 22.7514L204.812 19.8578Z" fill="#D7630F"/>
<path d="M215.944 24.2093C212.637 25.4003 210.141 27.7739 208.868 30.5665C211.63 31.906 215.066 32.1433 218.373 30.9523C221.626 29.7807 224.094 27.4643 225.386 24.7305C225.421 24.6558 225.389 24.5659 225.314 24.5309C222.576 23.2483 219.198 23.0376 215.944 24.2093Z" fill="#BDA105"/>
<path d="M225.314 24.531C222.576 23.2484 219.198 23.0378 215.944 24.2094C212.902 25.3052 210.547 27.4022 209.198 29.9053L212.878 28.6079C213.981 27.6951 215.274 26.945 216.725 26.4227C219.399 25.4597 222.157 25.4312 224.575 26.1635C224.882 25.7022 225.153 25.2234 225.386 24.7307C225.421 24.6559 225.389 24.566 225.314 24.531Z" fill="#D7630F"/>
<path d="M220.273 26.483C220.189 26.246 219.929 26.1217 219.692 26.2052L207.622 30.4609L215.727 13.5289C215.835 13.3023 215.74 13.0306 215.513 12.9222C215.286 12.8137 215.015 12.9095 214.906 13.1361L208.285 26.9693L204.034 14.912C203.95 14.6751 203.69 14.5507 203.454 14.6343C203.217 14.7178 203.092 14.9776 203.176 15.2145L207.729 28.1298L204.921 33.9962L201.457 24.1709C201.374 23.9339 201.114 23.8096 200.877 23.8931C200.64 23.9767 200.516 24.2365 200.599 24.4734L204.428 35.3345C204.467 35.4443 204.548 35.5394 204.661 35.5937C204.888 35.7021 205.159 35.6063 205.268 35.3797L207.067 31.6215L219.995 27.0633C220.232 26.9797 220.356 26.7199 220.273 26.483Z" fill="#704025"/>
<path d="M42.4867 669.459C40.8707 672.894 40.7774 676.612 41.9377 679.718C45.0696 678.632 47.875 676.189 49.491 672.754C51.0808 669.374 51.1968 665.72 50.0954 662.646C50.0653 662.562 49.9719 662.518 49.888 662.548C46.8174 663.66 44.0765 666.079 42.4867 669.459Z" fill="#BDA105"/>
<path d="M43.4942 675.264C43.6306 673.691 44.0484 672.093 44.7731 670.553C46.0797 667.775 48.1644 665.647 50.5702 664.36C50.4523 663.773 50.294 663.2 50.0956 662.646C50.0655 662.562 49.9721 662.518 49.8882 662.548C46.8176 663.66 44.0767 666.079 42.487 669.459C40.9915 672.637 40.8009 676.059 41.7003 679.013L43.4943 675.264L43.4942 675.264Z" fill="#D7630F"/>
<path d="M31.1594 682.327C32.0772 684.875 33.9063 686.799 36.0583 687.78C37.0906 685.652 37.2734 683.004 36.3557 680.456C35.4528 677.949 33.6678 676.047 31.5611 675.051C31.5035 675.024 31.4343 675.049 31.4072 675.107C30.4188 677.217 30.2565 679.82 31.1594 682.327Z" fill="#BDA105"/>
<path d="M34.3512 684.443C33.7369 683.649 33.2291 682.737 32.865 681.726C32.1229 679.665 32.1009 677.54 32.6652 675.676C32.3097 675.44 31.9407 675.231 31.561 675.051C31.5035 675.024 31.4342 675.049 31.4072 675.107C30.4189 677.217 30.2565 679.82 31.1594 682.327C31.9837 684.616 33.5432 686.4 35.4115 687.451L34.3512 684.443Z" fill="#D7630F"/>
<path d="M33.8343 672.912C34.7043 675.328 36.4382 677.151 38.4782 678.081C39.4567 676.064 39.63 673.554 38.7601 671.138C37.9042 668.761 36.2122 666.958 34.2151 666.015C34.1605 665.989 34.0949 666.013 34.0693 666.067C33.1323 668.068 32.9784 670.535 33.8343 672.912Z" fill="#BDA105"/>
<path d="M36.812 674.857C36.2506 674.119 35.7856 673.275 35.4497 672.342C34.7462 670.389 34.7254 668.374 35.2603 666.608C34.9233 666.384 34.5735 666.185 34.2136 666.015C34.1591 665.989 34.0934 666.013 34.0678 666.068C33.1309 668.068 32.977 670.536 33.8329 672.912C34.6096 675.069 36.0752 676.753 37.8322 677.751L36.812 674.857Z" fill="#D7630F"/>
<path d="M47.9442 679.209C44.6372 680.4 42.1415 682.774 40.8681 685.567C43.6296 686.906 47.0657 687.143 50.3727 685.952C53.626 684.781 56.0943 682.464 57.386 679.731C57.4213 679.656 57.3889 679.566 57.3141 679.531C54.5759 678.248 51.1976 678.038 47.9442 679.209Z" fill="#BDA105"/>
<path d="M57.3138 679.531C54.5757 678.248 51.1974 678.038 47.9441 679.209C44.9016 680.305 42.5466 682.402 41.1976 684.905L44.8773 683.608C45.9807 682.695 47.2742 681.945 48.7244 681.422C51.3985 680.459 54.1565 680.431 56.5745 681.163C56.8815 680.702 57.1531 680.223 57.3858 679.73C57.4211 679.656 57.3887 679.566 57.3138 679.531Z" fill="#D7630F"/>
<path d="M52.2726 681.483C52.189 681.246 51.9292 681.122 51.6923 681.205L39.6223 685.461L47.7269 668.529C47.8354 668.302 47.7396 668.031 47.513 667.922C47.2864 667.814 47.0147 667.91 46.9063 668.136L40.2849 681.969L36.0338 669.912C35.9502 669.675 35.6904 669.551 35.4535 669.634C35.2166 669.718 35.0922 669.978 35.1758 670.215L39.7294 683.13L36.9214 688.996L33.4571 679.171C33.3736 678.934 33.1138 678.81 32.8769 678.893C32.6399 678.977 32.5156 679.237 32.5991 679.474L36.4285 690.335C36.4672 690.444 36.5478 690.54 36.6612 690.594C36.8878 690.702 37.1594 690.606 37.2679 690.38L39.0668 686.622L51.9949 682.063C52.2318 681.98 52.3562 681.72 52.2726 681.483Z" fill="#704025"/>
<path d="M389.776 448.915C390.02 448.92 390.275 448.826 390.448 448.655L390.818 448.29L392.085 449.952L392.601 451.847C401.227 458.939 408.692 458.04 409.022 457.995C409.221 457.968 409.399 457.877 409.535 457.743C409.671 457.61 409.764 457.433 409.794 457.234C409.82 457.062 410.396 452.964 407.924 447.308C407.813 447.053 407.59 446.864 407.321 446.795L405.629 446.359L406.367 445.631C406.661 445.341 406.721 444.89 406.515 444.534C405.173 442.218 403.439 439.977 401.362 437.87C399.284 435.764 397.067 434 394.77 432.626C394.416 432.415 393.965 432.469 393.671 432.758L392.933 433.487L392.521 431.789C392.455 431.519 392.269 431.294 392.015 431.179C386.395 428.629 382.289 429.148 382.117 429.172C381.917 429.199 381.739 429.29 381.604 429.424C381.468 429.558 381.374 429.735 381.345 429.933C381.29 430.3 380.102 439.019 389.134 448.63C389.301 448.807 389.533 448.91 389.776 448.915Z" fill="#97DE3D"/>
<path d="M389.134 448.63C389.301 448.807 389.533 448.91 389.776 448.915C390.02 448.919 390.275 448.826 390.448 448.655L390.818 448.29L392.085 449.952L392.601 451.847C401.227 458.938 408.693 458.04 409.022 457.995C409.221 457.968 409.4 457.877 409.535 457.743L381.604 429.424C381.468 429.558 381.374 429.734 381.345 429.933C381.29 430.3 380.102 439.019 389.134 448.63Z" fill="#59C36A"/>
<path d="M391.289 450.729C391.73 451.129 392.166 451.489 392.601 451.847L392.65 444.842C392.653 444.342 392.251 443.935 391.752 443.932C391.253 443.928 390.845 444.33 390.842 444.829L390.818 448.29L390.815 448.699C390.811 449.219 390.897 450.376 391.289 450.729Z" fill="#00A66C"/>
<path d="M388.161 440.336L388.181 437.405L397.817 447.17L397.784 451.909C397.781 452.408 398.183 452.816 398.682 452.819C399.181 452.823 399.589 452.421 399.592 451.921L399.612 448.99L403.178 452.585C403.529 452.941 404.101 452.945 404.457 452.594C404.812 452.243 404.816 451.672 404.466 451.316L400.919 447.761L403.851 447.781C404.35 447.785 404.757 447.383 404.761 446.884C404.764 446.384 404.363 445.977 403.863 445.974L399.124 445.941L394.571 441.329L397.503 441.349C398.002 441.353 398.409 440.951 398.413 440.452C398.416 439.952 398.015 439.545 397.515 439.541L392.776 439.509L380.754 427.276C380.403 426.92 379.831 426.916 379.476 427.267C379.12 427.618 379.116 428.19 379.467 428.545L386.386 435.585L386.353 440.324C386.349 440.823 386.751 441.23 387.251 441.234C387.75 441.237 388.157 440.836 388.161 440.336Z" fill="#59C36A"/>
<path d="M379.467 428.545L386.386 435.585L386.353 440.324C386.349 440.823 386.751 441.23 387.251 441.234C387.75 441.237 388.157 440.836 388.161 440.336L388.181 437.405L397.817 447.17L397.784 451.909C397.781 452.408 398.182 452.816 398.682 452.819C399.181 452.822 399.589 452.421 399.592 451.921L399.612 448.99L403.178 452.585C403.529 452.941 404.101 452.945 404.457 452.594L379.476 427.267C379.12 427.618 379.116 428.189 379.467 428.545Z" fill="#00A66C"/>
<path d="M118.548 250.565L118.546 250.566L118.548 250.566L118.548 250.565Z" fill="black"/>
<g clip-path="url(#clip0)">
<path d="M17.2428 542.815L22.1607 537.665L29.2216 538.587C28.4339 542.302 25.7747 545.747 25.66 545.88C25.5321 546.04 25.362 546.147 25.1774 546.212C24.9927 546.277 24.7937 546.301 24.5934 546.256C24.4208 546.225 20.1881 545.212 17.2428 542.815Z" fill="#73553A"/>
<path d="M17.243 542.815L22.1609 537.665L25.1775 546.212C24.9928 546.277 24.7938 546.301 24.5935 546.256C24.4209 546.225 20.1882 545.212 17.243 542.815Z" fill="#59422D"/>
<path d="M30.5357 539.438C30.97 539.434 31.37 539.163 31.5348 538.752C31.6162 538.549 33.5089 533.712 32.6237 529.29L24.8133 529.758L21.681 537.266C25.4476 539.462 30.3292 539.44 30.5357 539.438Z" fill="#896748"/>
<path d="M15.5443 544.397C15.9304 544.614 16.4114 544.576 16.7523 544.303C16.9143 544.175 20.7293 541.128 22.2822 537.052L15.1289 533.175L8.75692 537.715C10.8439 541.713 15.3529 544.289 15.5443 544.397Z" fill="#73553A"/>
<path d="M13.6892 533.597L18.5263 527.368L26.2015 529.18C25.7129 533.482 22.8702 537.322 22.7497 537.504C22.6289 537.685 22.4382 537.798 22.2331 537.87C22.0281 537.943 21.8084 537.974 21.6008 537.909C21.3934 537.844 16.7697 536.638 13.6892 533.597Z" fill="#73553A"/>
<path d="M13.6892 533.597L18.5263 527.368L22.2332 537.87C22.0281 537.943 21.8085 537.974 21.6009 537.909C21.3934 537.844 16.7697 536.639 13.6892 533.597Z" fill="#59422D"/>
<path d="M21.1277 527.941C25.5778 531.751 32.7057 530.473 33.0071 530.417C33.5059 530.321 33.879 529.891 33.8945 529.38C33.9004 529.195 34.0047 524.813 32.0067 521.067L22.647 522.366L20.5541 527.407C20.736 527.591 20.9272 527.769 21.1277 527.941Z" fill="#73553A"/>
<path d="M7.82593 538.581C8.15893 538.969 8.71735 539.07 9.16799 538.831C9.43754 538.686 15.7885 535.206 16.8607 529.446C16.9089 529.187 16.946 528.928 16.9724 528.671L10.1268 526.783L4.07741 530.925C4.87348 535.095 7.70555 538.441 7.82593 538.581Z" fill="#59422D"/>
<path d="M10.8898 526.58L16.0068 520.23L23.9763 521.961C23.6302 526.143 20.3097 530.199 20.1818 530.359C20.0538 530.52 19.8838 530.626 19.6992 530.691C19.5145 530.756 19.3155 530.78 19.1152 530.736C18.9148 530.691 13.7844 529.619 10.8898 526.58Z" fill="#A07854"/>
<path d="M16.4401 521.462L16.4419 521.461L16.4408 521.461L16.4401 521.462Z" fill="black"/>
<path d="M10.8898 526.58L16.0069 520.23L19.6992 530.691C19.5145 530.756 19.3156 530.781 19.1152 530.736C18.9149 530.691 13.7844 529.619 10.8898 526.58Z" fill="#896748"/>
<path d="M32.7343 522.362C33.0245 522.3 33.2816 522.116 33.4353 521.859C33.5903 521.603 33.6319 521.293 33.5503 521.004C33.4675 520.712 33.3751 520.422 33.2732 520.133C31.3243 514.612 26.2702 511.002 20.5137 510.334L16.442 521.461C21.6936 523.048 27.3658 523.528 32.7343 522.362Z" fill="#896748"/>
<path d="M2.83664 531.845C2.95438 532.121 3.18122 532.336 3.46281 532.438C3.74381 532.542 4.05458 532.526 4.32428 532.39C9.23425 529.928 13.3495 525.993 16.4411 521.461L6.28698 515.355C2.22532 519.489 0.556492 525.471 2.50553 530.993C2.60735 531.282 2.71783 531.566 2.83664 531.845Z" fill="#73553A"/>
<path d="M6.28297 515.358C6.81026 514.826 7.39296 514.32 8.01073 513.849C9.42234 512.751 11.0368 511.835 12.8213 511.205C14.6264 510.568 16.4375 510.274 18.2461 510.236C19.0027 510.223 19.7736 510.25 20.5181 510.334C20.5556 510.505 20.6267 510.641 20.6436 510.82C21.4365 515.615 17.0988 520.906 16.9239 521.129C16.796 521.289 16.626 521.396 16.4413 521.461C16.2566 521.526 16.0576 521.55 15.8573 521.505C15.581 521.441 9.03525 520.084 6.56887 515.972C6.45538 515.782 6.37577 515.556 6.28297 515.358Z" fill="#73553A"/>
<path d="M6.28308 515.358C6.81037 514.826 7.39308 514.321 8.01084 513.849C9.42246 512.751 11.0369 511.835 12.8214 511.205L16.4414 521.461C16.2567 521.526 16.0577 521.55 15.8574 521.506C15.5811 521.442 9.03536 520.084 6.56898 515.972C6.45549 515.782 6.37588 515.556 6.28308 515.358Z" fill="#59422D"/>
</g>
<g clip-path="url(#clip1)">
<path d="M403.112 60.7274L396.043 59.8644L392.56 53.6535C396.009 52.0637 400.361 52.1354 400.536 52.1479C400.741 52.1544 400.928 52.2273 401.09 52.3364C401.253 52.4455 401.391 52.5905 401.475 52.7778C401.553 52.9349 403.272 56.9332 403.112 60.7274Z" fill="#73553A"/>
<path d="M403.111 60.7275L396.043 59.8644L401.09 52.3364C401.253 52.4455 401.391 52.5905 401.475 52.7778C401.553 52.9349 403.272 56.9332 403.111 60.7275Z" fill="#59422D"/>
<path d="M392.457 52.0911C392.194 51.7458 391.737 51.587 391.31 51.7005C391.098 51.7568 386.09 53.1314 383.074 56.4853L388.119 62.466L396.01 60.4873C395.519 56.1551 392.582 52.2555 392.457 52.0911Z" fill="#896748"/>
<path d="M405.396 61.1428C405.338 60.704 405.02 60.3412 404.598 60.2308C404.398 60.1775 399.675 58.9415 395.479 60.1337L396.648 68.1858L404.097 70.5789C406.054 66.5153 405.423 61.3609 405.396 61.1428Z" fill="#73553A"/>
<path d="M397.847 69.0875L389.962 68.9343L386.826 61.6986C390.566 59.5184 395.344 59.5007 395.562 59.4891C395.779 59.4777 395.984 59.5628 396.164 59.6838C396.345 59.8049 396.501 59.9622 396.573 60.1675C396.645 60.3729 398.444 64.7997 397.847 69.0875Z" fill="#73553A"/>
<path d="M397.847 69.0875L389.962 68.9343L396.164 59.6838C396.345 59.8049 396.501 59.9622 396.573 60.1675C396.645 60.3728 398.443 64.7997 397.847 69.0875Z" fill="#59422D"/>
<path d="M388.866 66.5067C389.259 60.6618 383.973 55.7124 383.748 55.5041C383.373 55.1617 382.805 55.1199 382.386 55.4131C382.235 55.5187 378.66 58.0552 376.851 61.8965L383.489 68.6225L388.781 67.2859C388.819 67.0303 388.848 66.7706 388.866 66.5067Z" fill="#73553A"/>
<path d="M405.348 70.8075C405.46 70.3085 405.207 69.8003 404.746 69.582C404.468 69.4531 397.882 66.4427 392.624 69.0272C392.387 69.1435 392.158 69.2684 391.936 69.4009L394.515 76.0174L401.452 78.3897C404.319 75.2582 405.308 70.9877 405.348 70.8075Z" fill="#59422D"/>
<path d="M393.897 75.5265L385.747 75.2216L382.37 67.7984C385.929 65.5754 391.165 65.8123 391.37 65.8189C391.576 65.8254 391.762 65.8983 391.925 66.0074C392.088 66.1164 392.226 66.2615 392.31 66.4488C392.394 66.6361 394.602 71.3897 393.897 75.5265Z" fill="#A07854"/>
<path d="M386.475 74.1381L386.474 74.1371L386.474 74.1382L386.475 74.1381Z" fill="black"/>
<path d="M393.897 75.5264L385.747 75.2216L391.925 66.0073C392.087 66.1164 392.226 66.2614 392.31 66.4487C392.394 66.636 394.602 71.3897 393.897 75.5264Z" fill="#896748"/>
<path d="M377.455 60.5389C377.232 60.3433 376.93 60.2473 376.632 60.2778C376.334 60.3067 376.061 60.4586 375.878 60.6968C375.694 60.9376 375.516 61.1854 375.346 61.4395C372.085 66.3032 372.214 72.5123 375.12 77.5265L386.474 74.1371C384.606 68.9786 381.599 64.1449 377.455 60.5389Z" fill="#896748"/>
<path d="M402.932 78.8343C403.083 78.5748 403.12 78.2644 403.033 77.9776C402.948 77.6904 402.749 77.451 402.479 77.316C397.57 74.8522 391.956 73.9061 386.475 74.1376L387.651 85.9281C393.393 86.712 399.186 84.4728 402.447 79.609C402.617 79.3549 402.779 79.0964 402.932 78.8343Z" fill="#73553A"/>
<path d="M387.656 85.9292C386.914 85.8246 386.16 85.6598 385.413 85.4467C383.689 84.9717 381.989 84.2252 380.417 83.1714C378.827 82.1055 377.51 80.829 376.397 79.4023C375.934 78.8038 375.496 78.1693 375.117 77.5228C375.232 77.3903 375.299 77.2518 375.432 77.1314C378.801 73.629 385.636 73.9425 385.919 73.9493C386.125 73.9558 386.311 74.0287 386.474 74.1377C386.637 74.2468 386.775 74.3919 386.859 74.5792C386.973 74.8389 389.799 80.8972 387.977 85.3328C387.892 85.5377 387.759 85.7364 387.656 85.9292Z" fill="#73553A"/>
<path d="M387.656 85.9291C386.914 85.8246 386.16 85.6598 385.413 85.4467C383.689 84.9717 381.989 84.2252 380.417 83.1714L386.474 74.1377C386.637 74.2468 386.775 74.3918 386.859 74.5791C386.973 74.8388 389.799 80.8972 387.977 85.3328C387.892 85.5377 387.759 85.7364 387.656 85.9291Z" fill="#59422D"/>
</g>
<g clip-path="url(#clip2)">
<path d="M131.112 636.728L124.043 635.865L120.56 629.654C124.009 628.064 128.361 628.135 128.536 628.148C128.741 628.155 128.928 628.227 129.09 628.337C129.253 628.446 129.391 628.591 129.475 628.778C129.553 628.935 131.272 632.933 131.112 636.728Z" fill="#73553A"/>
<path d="M131.111 636.727L124.043 635.864L129.09 628.336C129.253 628.445 129.391 628.591 129.475 628.778C129.553 628.935 131.272 632.933 131.111 636.727Z" fill="#59422D"/>
<path d="M120.457 628.091C120.194 627.746 119.737 627.587 119.31 627.7C119.098 627.757 114.09 629.131 111.074 632.485L116.119 638.466L124.01 636.487C123.519 632.155 120.582 628.256 120.457 628.091Z" fill="#896748"/>
<path d="M133.396 637.143C133.338 636.704 133.02 636.341 132.598 636.231C132.398 636.178 127.675 634.942 123.479 636.134L124.648 644.186L132.097 646.579C134.054 642.515 133.423 637.361 133.396 637.143Z" fill="#73553A"/>
<path d="M125.847 645.087L117.962 644.934L114.826 637.698C118.566 635.518 123.344 635.501 123.562 635.489C123.779 635.478 123.984 635.563 124.164 635.684C124.345 635.805 124.502 635.962 124.573 636.167C124.645 636.373 126.444 640.8 125.847 645.087Z" fill="#73553A"/>
<path d="M125.847 645.088L117.962 644.934L124.164 635.684C124.345 635.805 124.501 635.962 124.573 636.168C124.645 636.373 126.443 640.8 125.847 645.088Z" fill="#59422D"/>
<path d="M116.866 642.507C117.259 636.662 111.973 631.712 111.748 631.504C111.373 631.162 110.805 631.12 110.386 631.413C110.235 631.519 106.66 634.055 104.851 637.896L111.489 644.622L116.781 643.286C116.819 643.03 116.848 642.771 116.866 642.507Z" fill="#73553A"/>
<path d="M133.348 646.807C133.46 646.308 133.207 645.8 132.746 645.582C132.468 645.453 125.882 642.443 120.624 645.027C120.387 645.143 120.158 645.268 119.936 645.401L122.515 652.017L129.452 654.39C132.319 651.258 133.308 646.988 133.348 646.807Z" fill="#59422D"/>
<path d="M121.897 651.526L113.747 651.222L110.37 643.798C113.929 641.575 119.165 641.812 119.37 641.819C119.576 641.825 119.762 641.898 119.925 642.007C120.088 642.116 120.226 642.261 120.31 642.449C120.394 642.636 122.602 647.39 121.897 651.526Z" fill="#A07854"/>
<path d="M114.475 650.138L114.474 650.137L114.474 650.138L114.475 650.138Z" fill="black"/>
<path d="M121.897 651.526L113.747 651.222L119.925 642.007C120.087 642.116 120.226 642.261 120.31 642.449C120.394 642.636 122.602 647.39 121.897 651.526Z" fill="#896748"/>
<path d="M105.455 636.539C105.232 636.343 104.931 636.247 104.633 636.278C104.335 636.306 104.061 636.458 103.879 636.697C103.694 636.937 103.517 637.185 103.346 637.439C100.085 642.303 100.214 648.512 103.12 653.526L114.474 650.137C112.606 644.978 109.6 640.145 105.455 636.539Z" fill="#896748"/>
<path d="M130.932 654.835C131.083 654.575 131.12 654.265 131.033 653.978C130.948 653.691 130.749 653.451 130.479 653.316C125.57 650.852 119.956 649.906 114.475 650.138L115.651 661.928C121.393 662.712 127.186 660.473 130.447 655.609C130.617 655.355 130.779 655.097 130.932 654.835Z" fill="#73553A"/>
<path d="M115.656 661.929C114.914 661.825 114.16 661.66 113.413 661.447C111.689 660.972 109.989 660.225 108.417 659.171C106.827 658.105 105.51 656.829 104.397 655.402C103.934 654.804 103.496 654.169 103.117 653.523C103.232 653.39 103.299 653.252 103.432 653.131C106.801 649.629 113.636 649.943 113.919 649.949C114.125 649.956 114.311 650.029 114.474 650.138C114.637 650.247 114.775 650.392 114.859 650.579C114.973 650.839 117.799 656.897 115.977 661.333C115.892 661.538 115.759 661.736 115.656 661.929Z" fill="#73553A"/>
<path d="M115.656 661.929C114.914 661.825 114.16 661.66 113.413 661.447C111.689 660.972 109.989 660.225 108.417 659.171L114.474 650.138C114.637 650.247 114.775 650.392 114.859 650.579C114.973 650.839 117.799 656.897 115.977 661.333C115.892 661.538 115.759 661.736 115.656 661.929Z" fill="#59422D"/>
</g>
<defs>
<clipPath id="clip0">
<rect width="37.1236" height="37.1236" fill="white" transform="translate(42.6809 540.034) rotate(160.559)"/>
</clipPath>
<clipPath id="clip1">
<rect width="37.1236" height="37.1236" fill="white" transform="translate(385.673 42) rotate(33.8394)"/>
</clipPath>
<clipPath id="clip2">
<rect width="37.1236" height="37.1236" fill="white" transform="translate(113.673 618) rotate(33.8394)"/>
</clipPath>
</defs>
</svg>
