<svg width="37" height="37" viewBox="0 0 37 37" fill="none" xmlns="http://www.w3.org/2000/svg">
<g clip-path="url(#clip0)">
<path d="M2.72786 31.7546C2.72786 30.3561 3.86158 29.2224 5.26009 29.2224H36.4428V27.0519H5.26009C2.66289 27.0519 0.557373 29.1573 0.557373 31.7546C0.557373 34.3518 2.66282 36.4573 5.26009 36.4573H36.4428V34.2868H5.26009C3.86158 34.2868 2.72786 33.1531 2.72786 31.7546V31.7546Z" fill="#CBDCFB"/>
<path d="M35.2852 29.2224H5.26014C3.86162 29.2224 2.72791 30.3561 2.72791 31.7546C2.72791 33.1532 3.86162 34.2869 5.26014 34.2869H35.2852V29.2224Z" fill="white"/>
<path d="M2.97194 30.6694C2.81567 30.9984 2.72791 31.3662 2.72791 31.7547C2.72791 33.1532 3.86162 34.2869 5.26014 34.2869H35.2852V32.1164H5.26014C4.25007 32.1164 3.37833 31.5248 2.97194 30.6694V30.6694Z" fill="#E4E8ED"/>
<path d="M6.20064 23.4345C6.20064 22.6353 6.84846 21.9875 7.64763 21.9875H32.97V19.817H7.64763C5.64977 19.817 4.03015 21.4366 4.03015 23.4345C4.03015 25.4324 5.64977 27.052 7.64763 27.052H32.97V24.8815H7.64763C6.84846 24.8815 6.20064 24.2336 6.20064 23.4345V23.4345Z" fill="#F88FA4"/>
<path d="M31.8124 21.9874H7.64767C6.8485 21.9874 6.20068 22.6352 6.20068 23.4344C6.20068 24.2336 6.8485 24.8814 7.64767 24.8814H31.8124V21.9874Z" fill="white"/>
<path d="M26.4585 4.98535V15.8378C26.4585 15.8378 24.288 17.2848 18.5001 17.2848C12.7121 17.2848 10.5416 15.8378 10.5416 15.8378V4.98535H26.4585Z" fill="#616161"/>
<path d="M10.5416 13.6674V15.8378C10.5416 15.8378 12.7121 17.2848 18.5001 17.2848C24.288 17.2848 26.4585 15.8378 26.4585 15.8378V13.6674C26.4585 13.6674 24.288 15.1143 18.5001 15.1143C12.7121 15.1143 10.5416 13.6674 10.5416 13.6674V13.6674Z" fill="#424242"/>
<path d="M32.2465 15.1143H29.3525V12.9438C29.3525 12.1446 30.0004 11.4968 30.7995 11.4968C31.5987 11.4968 32.2465 12.1446 32.2465 12.9438V15.1143Z" fill="#616161"/>
<path d="M31.523 4.91299L18.5001 9.25397L5.47717 4.91299L18.5001 0.572021L31.523 4.91299Z" fill="#616161"/>
<path d="M28.0502 3.75537L18.5001 6.93875L8.94995 3.75537L5.47717 4.91296L18.5001 9.25394L31.523 4.91296L28.0502 3.75537Z" fill="#424242"/>
<path d="M6.34521 31.5739H7.43046V32.6591H6.34521V31.5739Z" fill="white"/>
<path d="M21.3939 13.7758H22.4792V14.861H21.3939V13.7758Z" fill="white"/>
<path d="M36.9853 29.7651V26.5094H33.5125V24.3389H32.3549V22.5301H33.5125V19.2744H24.8564V20.3597H32.4273V21.4449H9.97299V22.5301H31.2696V24.3389H7.64746C7.14875 24.3389 6.74309 23.9332 6.74309 23.4345C6.74309 22.9358 7.14875 22.5301 7.64746 22.5301H8.88774V21.4449H7.64746C6.55042 21.4449 5.65784 22.3374 5.65784 23.4345C5.65784 24.5316 6.55042 25.4241 7.64746 25.4241H32.4272V26.5094H13.7248V27.5946H35.9V28.6799H5.25992C3.56441 28.6799 2.18506 30.0592 2.18506 31.7547C2.18506 33.4502 3.56441 34.8296 5.25992 34.8296H30.8199V33.7443H5.25999C4.16288 33.7443 3.27038 32.8518 3.27038 31.7547C3.27038 30.6576 4.16288 29.7651 5.25999 29.7651H34.7424V31.5738H10.6862V32.6591H34.7424V33.7443H31.9053V34.8296H35.9V35.9148H5.25999C2.96608 35.9148 1.09989 34.0486 1.09989 31.7547C1.09989 29.4608 2.96608 27.5946 5.25999 27.5946H12.6396V26.5094H7.64753C5.95202 26.5094 4.57267 25.13 4.57267 23.4345C4.57267 21.739 5.95202 20.3597 7.64753 20.3597H23.7711V19.2744H7.64753C5.35361 19.2744 3.48743 21.1406 3.48743 23.4345C3.48743 24.6603 4.02057 25.7636 4.86684 26.5257C2.15764 26.7276 0.0146484 28.9948 0.0146484 31.7547C0.0146484 34.647 2.36767 37.0001 5.25999 37.0001H36.9853V33.7443H35.8277V29.7651H36.9853Z" fill="black"/>
<path d="M8.51575 31.5737H9.60099V32.659H8.51575V31.5737Z" fill="black"/>
<path d="M9.99887 16.1281L10.2405 16.2892C10.3347 16.352 12.6153 17.8274 18.4999 17.8274C24.3846 17.8274 26.6652 16.352 26.7594 16.2892L27.001 16.1281V6.99222L30.2567 5.90698V11.03C29.4227 11.2669 28.8098 12.0348 28.8098 12.9438V15.6569H32.789V12.9438C32.789 12.0348 32.176 11.2669 31.342 11.03V5.54523L33.2388 4.91297L27.5401 3.01336L27.1969 4.04289L29.8069 4.9129L18.4999 8.68195L7.19294 4.91297L18.4999 1.14399L26.1673 3.69981L26.5106 2.67028L18.4999 0L3.76111 4.91297L9.99887 6.99222V16.1281ZM31.7037 12.9438V14.5716H29.895V12.9438C29.895 12.4451 30.3007 12.0394 30.7994 12.0394C31.2981 12.0394 31.7037 12.4451 31.7037 12.9438ZM11.0841 7.35397L18.4999 9.82594L25.9158 7.35397V11.6053H24.5773V12.6905H25.9158V13.7758H23.5644V14.861H25.9158V15.5152C25.2164 15.8558 22.9664 16.7421 18.4999 16.7421C14.03 16.7421 11.78 15.8544 11.0841 15.5155V7.35397Z" fill="black"/>
</g>
<defs>
<clipPath id="clip0">
<rect width="37" height="37" fill="white"/>
</clipPath>
</defs>
</svg>
