<svg width="420" height="721" viewBox="0 0 420 721" fill="none" xmlns="http://www.w3.org/2000/svg">
<path d="M50.4788 676.103L52.3488 610.746L71.1996 592.174L90.0504 610.746L91.9203 676.103C92.211 686.254 100.524 694.332 110.68 694.332L70.3552 707.765L31.7205 694.332C41.8755 694.332 50.1882 686.253 50.4788 676.103Z" fill="#603E2C"/>
<path d="M145.429 596.695L145.71 586.878L144.716 584.889C121.537 582.599 98.592 577.203 76.5123 568.702C71.5565 566.794 69.3231 561.032 71.6979 556.282L100.737 498.202C96.8625 496.946 93.0132 495.585 89.1942 494.114C84.9076 492.463 82.9754 487.479 85.0294 483.37L107.563 438.304L72.2302 367.637C71.8063 366.788 70.5949 366.788 70.171 367.637L16.0094 475.961C14.6816 478.616 15.9303 481.837 18.7006 482.904C22.1659 484.238 25.6694 485.435 29.2032 486.495L5.92008 533.062C4.34963 536.203 5.82677 540.014 9.10365 541.275C12.0233 542.399 14.966 543.44 17.9282 544.4L-4.27142 588.798C-6.08718 592.43 -4.37897 596.834 -0.591034 598.293C45.6161 616.083 96.7825 616.083 142.99 598.293C143.942 597.928 144.764 597.375 145.429 596.695Z" fill="#D7630F"/>
<path d="M64.052 406.219C68.3883 414.891 68.3883 425.098 64.052 433.77L47.2996 467.275C45.3399 471.193 48.1901 475.804 52.5709 475.804C54.9421 476.717 57.3258 477.589 59.7192 478.419C62.038 479.223 63.1223 481.876 62.0247 484.072L35.0746 537.972C32.6998 542.721 34.9359 548.485 39.8908 550.393C50.0148 554.291 60.3209 557.535 70.7471 560.126L100.738 498.204L107.563 438.306L72.2304 367.639C71.8065 366.79 70.5951 366.79 70.1712 367.639L57.4671 393.047L64.052 406.219Z" fill="#BDA105"/>
<path d="M145.71 572.712L108.464 578.707C107.865 579.238 107.162 579.676 106.367 579.982C70.8215 593.668 32.3422 596.824 -4.55766 589.455C-5.87571 592.944 -4.15327 596.922 -0.590199 598.294C45.6169 616.084 96.7833 616.084 142.99 598.294C143.942 597.927 144.763 597.375 145.429 596.695L154.412 584.991L145.71 572.712Z" fill="#BDA105"/>
<path d="M49.1385 558.27C48.8469 558.27 48.551 558.251 48.2532 558.213C45.3301 557.836 42.3714 557.381 39.458 556.858C35.7252 556.188 33.242 552.62 33.9112 548.887C34.5813 545.154 38.1542 542.667 41.8826 543.341C44.5737 543.824 47.3067 544.244 50.0059 544.592C53.7672 545.075 56.4237 548.516 55.9402 552.279C55.4949 555.742 52.5407 558.27 49.1385 558.27Z" fill="#BDA105"/>
<path d="M39.8898 550.392C44.7522 552.264 49.6574 553.985 54.598 555.555C55.3019 554.63 55.781 553.513 55.9401 552.278C56.4244 548.516 53.767 545.074 50.0057 544.591C47.3066 544.243 44.5727 543.823 41.8824 543.34C39.2028 542.856 36.6031 544.005 35.1038 546.075C36.0716 547.981 37.7203 549.556 39.8898 550.392Z" fill="#60401E"/>
<path d="M282.806 674.307L280.729 601.718L260.712 589.17L238.855 601.718L236.778 674.307C236.456 685.582 227.223 694.554 215.944 694.554L258.276 707.987L303.64 694.554C292.361 694.554 283.129 685.581 282.806 674.307Z" fill="#603E2C"/>
<path d="M343.616 577.342L318.96 528.03C322.249 526.964 325.518 525.807 328.76 524.559C332.399 523.157 334.04 518.926 332.296 515.438L306.435 463.716C310.36 462.539 314.251 461.209 318.1 459.727C321.177 458.542 322.563 454.964 321.089 452.015L260.936 331.707C260.465 330.764 259.12 330.764 258.649 331.707L225.423 398.157L194.476 439.498L177 585.73C177.795 586.66 178.827 587.414 180.057 587.887C231.378 607.646 288.207 607.646 339.528 587.887C343.735 586.267 345.632 581.375 343.616 577.342Z" fill="#D7630F"/>
<path d="M343.616 577.342L318.96 528.03C322.249 526.964 325.518 525.807 328.76 524.559C332.479 524.559 334.9 520.644 333.236 517.317L306.436 463.717C310.361 462.54 314.252 461.21 318.101 459.728C320.611 457.218 321.365 452.567 319.778 449.392L260.936 331.707C260.465 330.764 259.12 330.764 258.649 331.707L246.058 356.887L283.155 431.08C284.742 434.255 283.987 438.906 281.477 441.415C280.852 441.656 280.225 441.894 279.597 442.126C274.448 444.036 272.111 450.001 274.566 454.912L296.613 499.006C298.277 502.334 295.858 506.248 292.137 506.248C292.105 506.26 292.072 506.273 292.04 506.285C286.917 508.254 284.56 514.165 287.015 519.074L306.993 559.031C309.01 563.064 307.113 567.956 302.905 569.576C269.782 582.329 234.364 586.85 199.614 583.141L185.24 579.513L177 585.731C177.795 586.661 178.827 587.415 180.057 587.888C231.378 607.647 288.207 607.647 339.528 587.888C343.735 586.267 345.631 581.375 343.616 577.342Z" fill="#BDA105"/>
<path d="M273.112 543.781C269.537 543.781 266.521 541.013 266.269 537.392C266.005 533.608 268.858 530.327 272.641 530.065C280.122 529.543 287.638 528.558 294.985 527.134C298.709 526.418 302.312 528.846 303.033 532.57C303.754 536.293 301.32 539.896 297.597 540.617C289.706 542.146 281.63 543.205 273.596 543.764C273.433 543.776 273.272 543.781 273.112 543.781Z" fill="#BDA105"/>
<path d="M303.032 532.569C302.312 528.845 298.709 526.417 294.985 527.133C293.786 527.365 292.581 527.586 291.375 527.795L297.767 540.582C301.394 539.784 303.743 536.235 303.032 532.569Z" fill="#60401E"/>
<path d="M305.48 676.105L307.35 610.748L326.201 592.176L345.052 610.748L346.922 676.105C347.212 686.256 355.525 694.335 365.681 694.335L325.356 707.767L286.721 694.335C296.876 694.335 305.189 686.256 305.48 676.105Z" fill="#A56C4E"/>
<path d="M400.43 596.696L400.711 586.879L399.717 584.891C376.538 582.6 353.593 577.205 331.513 568.703C326.557 566.795 324.324 561.033 326.698 556.283L355.738 498.203C351.863 496.947 348.014 495.586 344.195 494.115C339.908 492.464 337.976 487.48 340.03 483.371L362.564 438.304L327.231 367.637C326.807 366.788 325.595 366.788 325.172 367.637L271.01 475.961C269.682 478.616 270.93 481.838 273.701 482.905C277.166 484.239 280.67 485.436 284.203 486.496L260.92 533.063C259.35 536.204 260.827 540.015 264.104 541.276C267.023 542.4 269.966 543.441 272.928 544.401L250.729 588.799C248.913 592.431 250.621 596.836 254.409 598.294C300.616 616.085 351.783 616.085 397.991 598.294C398.943 597.929 399.765 597.376 400.43 596.696Z" fill="#4F8980"/>
<path d="M319.052 406.219C323.389 414.891 323.389 425.099 319.052 433.771L302.3 467.276C300.34 471.194 303.19 475.805 307.571 475.805C309.942 476.718 312.326 477.59 314.719 478.42C317.038 479.223 318.123 481.877 317.025 484.073L290.075 537.973C287.7 542.722 289.936 548.487 294.891 550.394C305.015 554.292 315.321 557.536 325.747 560.128L355.738 498.205L362.564 438.307L327.231 367.639C326.807 366.791 325.595 366.791 325.171 367.639L312.467 393.048L319.052 406.219Z" fill="#477D73"/>
<path d="M400.711 572.714L363.465 578.708C362.866 579.24 362.163 579.677 361.368 579.984C325.822 593.669 287.343 596.826 250.442 589.456C249.124 592.946 250.847 596.924 254.41 598.295C300.617 616.086 351.784 616.086 397.992 598.295C398.943 597.929 399.764 597.376 400.43 596.696L409.413 584.993L400.711 572.714Z" fill="#477D73"/>
<path d="M304.139 558.271C303.847 558.271 303.551 558.252 303.254 558.214C300.33 557.837 297.372 557.382 294.458 556.86C290.725 556.19 288.242 552.621 288.911 548.888C289.582 545.155 293.154 542.669 296.883 543.342C299.574 543.825 302.307 544.245 305.006 544.593C308.768 545.076 311.424 548.518 310.941 552.28C310.495 555.743 307.541 558.271 304.139 558.271Z" fill="#477D73"/>
<path d="M294.891 550.393C299.754 552.265 304.659 553.986 309.599 555.556C310.303 554.631 310.782 553.514 310.941 552.279C311.426 548.517 308.768 545.075 305.007 544.592C302.308 544.244 299.574 543.824 296.884 543.341C294.204 542.857 291.604 544.006 290.105 546.076C291.073 547.982 292.722 549.557 294.891 550.393Z" fill="#3D6E66"/>
<path d="M437.782 670.339L435.336 584.845L410.677 570.662L386.018 584.845L383.573 670.339C383.192 683.618 372.318 694.185 359.034 694.185L410.677 713.113L462.321 694.185C449.037 694.185 438.163 683.618 437.782 670.339Z" fill="#603E2C"/>
<path d="M417.544 647.767C417.544 643.973 414.47 640.9 410.677 640.9C406.885 640.9 403.811 643.974 403.811 647.767V702.124H417.545V647.767H417.544Z" fill="#704025"/>
<path d="M410.677 627.166C406.885 627.166 403.811 624.091 403.811 620.299V586.01C403.811 582.217 406.885 579.144 410.677 579.144C414.47 579.144 417.544 582.218 417.544 586.01V620.299C417.544 624.091 414.47 627.166 410.677 627.166Z" fill="#704025"/>
<path d="M509.403 556.136L480.363 498.057C484.237 496.801 488.087 495.439 491.906 493.968C496.193 492.318 498.125 487.334 496.071 483.225L465.613 422.31C470.236 420.922 474.819 419.356 479.352 417.611C482.975 416.215 484.609 412.002 482.872 408.528L412.025 266.833C411.47 265.722 409.886 265.722 409.331 266.833L338.483 408.529C336.746 412.002 338.38 416.216 342.004 417.611C346.537 419.357 351.12 420.923 355.743 422.31L325.285 483.226C323.231 487.334 325.163 492.318 329.449 493.969C333.268 495.439 337.118 496.802 340.993 498.058L311.953 556.137C309.578 560.887 311.812 566.649 316.767 568.558C377.212 591.83 444.144 591.83 504.588 568.558C509.543 566.648 511.778 560.886 509.403 556.136Z" fill="#C35E15"/>
<path d="M509.403 556.136L480.363 498.058C484.237 496.802 488.088 495.44 491.907 493.969C496.193 492.319 498.125 487.335 496.071 483.227L465.613 422.311C470.236 420.924 474.819 419.358 479.352 417.612C482.975 416.217 484.609 412.003 482.872 408.53L412.025 266.833C411.47 265.722 409.886 265.722 409.331 266.833L396.944 291.606L446.25 390.217C447.986 393.69 446.353 397.904 442.729 399.299C442 399.58 441.269 399.857 440.538 400.128C434.462 402.382 431.702 409.421 434.601 415.217L460.555 467.128C462.515 471.046 459.665 475.657 455.284 475.657L455.169 475.701C449.132 478.022 446.369 485.002 449.262 490.787L472.78 537.825C475.152 542.567 472.929 548.334 467.981 550.239C417.657 569.619 362.835 572.865 311.003 559.98C310.933 563.635 313.108 567.147 316.769 568.557C377.213 591.828 444.145 591.828 504.589 568.557C509.543 566.648 511.778 560.886 509.403 556.136Z" fill="#9F2E2E"/>
<path d="M410.677 515.933C406.884 515.933 403.81 512.858 403.81 509.066C403.81 505.273 406.884 502.199 410.677 502.199C426.003 502.199 441.374 500.58 456.363 497.387C460.079 496.596 463.72 498.961 464.51 502.671C465.3 506.381 462.935 510.028 459.226 510.819C443.297 514.212 426.963 515.933 410.677 515.933Z" fill="#9F2E2E"/>
<path d="M410.677 437.232C399.593 437.232 388.432 436.291 377.506 434.433C373.767 433.799 371.251 430.253 371.886 426.513C372.522 422.774 376.071 420.262 379.806 420.895C389.974 422.622 400.361 423.499 410.677 423.499C414.469 423.499 417.544 426.573 417.544 430.365C417.545 434.158 414.47 437.232 410.677 437.232Z" fill="#9F2E2E"/>
<path d="M21.8069 674.309L19.7298 601.719L-0.287182 589.171L-22.1439 601.719L-24.221 674.309C-24.5436 685.584 -33.7762 694.556 -45.0557 694.556L-2.72331 707.989L42.6416 694.556C31.3621 694.556 22.1295 685.583 21.8069 674.309Z" fill="#A56C4E"/>
<path d="M82.617 577.344L57.9606 528.031C61.2499 526.965 64.5188 525.808 67.7611 524.56C71.4006 523.159 73.0413 518.927 71.2966 515.439L45.4359 463.717C49.3607 462.54 53.2518 461.21 57.1011 459.728C60.178 458.543 61.5645 454.965 60.0901 452.016L-0.0631561 331.707C-0.534203 330.764 -1.87981 330.764 -2.35087 331.707L-35.5768 398.158L-66.524 439.499L-84 585.732C-83.2054 586.662 -82.1727 587.415 -80.9426 587.889C-29.6212 607.648 27.208 607.648 78.5295 587.889C82.7361 586.269 84.6336 581.377 82.617 577.344Z" fill="#4F8980"/>
<path d="M82.617 577.344L57.9605 528.031C61.2499 526.965 64.5188 525.808 67.7611 524.56C71.4806 524.56 73.9007 520.645 72.2369 517.318L45.4368 463.718C49.3616 462.541 53.2527 461.211 57.102 459.728C59.6119 457.219 60.3665 452.568 58.7791 449.393L-0.0631561 331.707C-0.53421 330.764 -1.87893 330.764 -2.35087 331.707L-14.9412 356.887L22.1553 431.081C23.7427 434.255 22.9881 438.906 20.4782 441.416C19.8525 441.657 19.2259 441.894 18.5976 442.127C13.4489 444.036 11.1114 450.002 13.5671 454.913L35.6141 499.007C37.2778 502.335 34.8586 506.249 31.1382 506.249C31.1062 506.261 31.0733 506.274 31.0413 506.286C25.9175 508.256 23.5605 514.166 26.0162 519.076L45.9941 559.032C48.0107 563.065 46.1141 567.957 41.9057 569.578C8.78283 582.331 -26.6358 586.852 -61.386 583.143L-75.7602 579.514L-84 585.733C-83.2054 586.662 -82.1727 587.416 -80.9426 587.89C-29.6212 607.649 27.208 607.649 78.5295 587.89C82.7361 586.269 84.6327 581.377 82.617 577.344Z" fill="#477D73"/>
<path d="M12.1123 543.782C8.53765 543.782 5.52203 541.014 5.26962 537.393C5.00566 533.609 7.85864 530.328 11.6422 530.066C19.123 529.544 26.6393 528.559 33.986 527.135C37.7099 526.419 41.313 528.847 42.0338 532.571C42.7555 536.294 40.3211 539.897 36.5981 540.618C28.7066 542.147 20.6312 543.206 12.5967 543.766C12.434 543.777 12.2723 543.782 12.1123 543.782Z" fill="#477D73"/>
<path d="M42.0338 532.57C41.313 528.847 37.7099 526.419 33.9859 527.134C32.787 527.366 31.5827 527.588 30.3757 527.796L36.7687 540.583C40.3949 539.786 42.7439 536.236 42.0338 532.57Z" fill="#3D6E66"/>
<path d="M197.529 670.341L195.083 584.847L170.424 570.664L145.765 584.847L143.319 670.341C142.939 683.62 132.065 694.188 118.78 694.188L170.424 713.116L222.068 694.188C208.784 694.188 197.91 683.62 197.529 670.341Z" fill="#A56C4E"/>
<path d="M177.291 647.769C177.291 643.975 174.217 640.902 170.425 640.902C166.632 640.902 163.558 643.976 163.558 647.769V702.126H177.292V647.769H177.291Z" fill="#8B5131"/>
<path d="M170.425 627.168C166.632 627.168 163.558 624.094 163.558 620.301V586.012C163.558 582.219 166.632 579.146 170.425 579.146C174.217 579.146 177.291 582.22 177.291 586.012V620.301C177.291 624.094 174.217 627.168 170.425 627.168Z" fill="#8B5131"/>
<path d="M269.151 556.138L240.111 498.058C243.985 496.802 247.835 495.441 251.654 493.97C255.941 492.319 257.873 487.335 255.819 483.226L225.361 422.31C229.983 420.923 234.567 419.357 239.099 417.612C242.723 416.216 244.356 412.002 242.62 408.529L171.772 266.833C171.217 265.722 169.633 265.722 169.078 266.833L98.2293 408.53C96.4926 412.003 98.1262 416.217 101.751 417.612C106.283 419.358 110.867 420.924 115.489 422.311L85.031 483.227C82.977 487.335 84.9092 492.319 89.1958 493.971C93.0148 495.441 96.8641 496.803 100.739 498.059L71.6993 556.139C69.3245 560.888 71.558 566.651 76.5138 568.559C136.959 591.832 203.891 591.832 264.336 568.559C269.291 566.649 271.525 560.887 269.151 556.138Z" fill="#61976B"/>
<path d="M269.15 556.138L240.11 498.059C243.985 496.803 247.835 495.442 251.654 493.971C255.94 492.32 257.873 487.336 255.819 483.228L225.36 422.312C229.983 420.925 234.566 419.359 239.099 417.613C242.723 416.218 244.356 412.004 242.619 408.531L171.772 266.833C171.217 265.722 169.632 265.722 169.078 266.833L156.691 291.606L205.997 390.218C207.733 393.691 206.1 397.905 202.476 399.3C201.746 399.581 201.016 399.857 200.284 400.128C194.209 402.382 191.449 409.421 194.347 415.218L220.302 467.129C222.262 471.047 219.412 475.658 215.031 475.658L214.916 475.703C208.879 478.023 206.116 485.003 209.009 490.789L232.527 537.826C234.899 542.569 232.676 548.335 227.728 550.241C177.404 569.621 122.581 572.867 70.749 559.982C70.6788 563.636 72.8536 567.149 76.5145 568.558C136.959 591.83 203.892 591.83 264.337 568.558C269.291 566.649 271.525 560.887 269.15 556.138Z" fill="#2F7862"/>
<path d="M170.424 515.934C166.631 515.934 163.557 512.86 163.557 509.067C163.557 505.275 166.631 502.201 170.424 502.201C185.75 502.201 201.121 500.581 216.11 497.388C219.826 496.598 223.467 498.963 224.258 502.673C225.048 506.382 222.682 510.03 218.973 510.82C203.044 514.213 186.71 515.934 170.424 515.934Z" fill="#2F7862"/>
<path d="M224.257 502.672C223.467 498.962 219.826 496.597 216.11 497.387C214.962 497.631 213.812 497.867 212.66 498.093L219.018 510.808C222.701 509.999 225.045 506.366 224.257 502.672Z" fill="#4F8980"/>
<path d="M170.425 437.233C159.34 437.233 148.179 436.292 137.253 434.434C133.514 433.8 130.998 430.253 131.633 426.514C132.269 422.775 135.817 420.263 139.553 420.896C149.721 422.623 160.108 423.5 170.424 423.5C174.216 423.5 177.291 426.574 177.291 430.366C177.292 434.159 174.217 437.233 170.425 437.233Z" fill="#2F7862"/>
<path d="M406.382 694H13.6164C2.4051 694 -7.67772 699.134 -11.8389 706.963L-17.8021 718.181C-18.5196 719.532 -17.1975 721 -15.2636 721H435.263C437.197 721 438.52 719.532 437.802 718.181L431.838 706.963C427.676 699.133 417.594 694 406.382 694Z" fill="#61976B"/>
<path d="M64.8416 88.9002C67.9842 88.9002 70.5317 86.3527 70.5317 83.2102C70.5317 80.0677 67.9842 77.5201 64.8416 77.5201C61.6991 77.5201 59.1516 80.0677 59.1516 83.2102C59.1516 86.3527 61.6991 88.9002 64.8416 88.9002Z" fill="#F4D8A5"/>
<path d="M126.69 230.38C129.833 230.38 132.38 227.833 132.38 224.69C132.38 221.548 129.833 219 126.69 219C123.548 219 121 221.548 121 224.69C121 227.833 123.548 230.38 126.69 230.38Z" fill="#F1CB86"/>
<path d="M361.69 35.3801C364.833 35.3801 367.38 32.8325 367.38 29.69C367.38 26.5475 364.833 24 361.69 24C358.548 24 356 26.5475 356 29.69C356 32.8325 358.548 35.3801 361.69 35.3801Z" fill="#F1CB86"/>
<path d="M243.857 265.977C247 265.977 249.547 263.43 249.547 260.287C249.547 257.145 247 254.597 243.857 254.597C240.715 254.597 238.167 257.145 238.167 260.287C238.167 263.43 240.715 265.977 243.857 265.977Z" fill="#F4D8A5"/>
<path d="M290.878 307.425C292.259 307.425 293.378 306.306 293.378 304.925C293.378 303.545 292.259 302.425 290.878 302.425C289.498 302.425 288.378 303.545 288.378 304.925C288.378 306.306 289.498 307.425 290.878 307.425Z" fill="#F1CB86"/>
<path d="M288.346 150.149C291.488 150.149 294.036 147.601 294.036 144.459C294.036 141.316 291.488 138.769 288.346 138.769C285.203 138.769 282.656 141.316 282.656 144.459C282.656 147.601 285.203 150.149 288.346 150.149Z" fill="#F4D8A5"/>
<path d="M343.118 113.2C345.051 113.2 346.618 111.633 346.618 109.7C346.618 107.767 345.051 106.2 343.118 106.2C341.185 106.2 339.618 107.767 339.618 109.7C339.618 111.633 341.185 113.2 343.118 113.2Z" fill="#F4D8A5"/>
<path d="M95.3733 298.756C96.754 298.756 97.8733 297.637 97.8733 296.256C97.8733 294.875 96.754 293.756 95.3733 293.756C93.9926 293.756 92.8733 294.875 92.8733 296.256C92.8733 297.637 93.9926 298.756 95.3733 298.756Z" fill="#F4D8A5"/>
<path d="M12.69 11.38C15.8325 11.38 18.38 8.8325 18.38 5.69C18.38 2.5475 15.8325 0 12.69 0C9.5475 0 7 2.5475 7 5.69C7 8.8325 9.5475 11.38 12.69 11.38Z" fill="#F1CB86"/>
<path d="M106.334 17.999C108.267 17.999 109.834 16.432 109.834 14.499C109.834 12.566 108.267 10.999 106.334 10.999C104.401 10.999 102.834 12.566 102.834 14.499C102.834 16.432 104.401 17.999 106.334 17.999Z" fill="#F1CB86"/>
<path d="M31.1551 319.306C34.2976 319.306 36.8451 316.758 36.8451 313.616C36.8451 310.473 34.2976 307.926 31.1551 307.926C28.0126 307.926 25.4651 310.473 25.4651 313.616C25.4651 316.758 28.0126 319.306 31.1551 319.306Z" fill="#F1CB86"/>
<path d="M48.9739 191.277C50.3546 191.277 51.4739 190.158 51.4739 188.777C51.4739 187.397 50.3546 186.277 48.9739 186.277C47.5932 186.277 46.4739 187.397 46.4739 188.777C46.4739 190.158 47.5932 191.277 48.9739 191.277Z" fill="#F4D8A5"/>
<path d="M151.69 110.38C154.833 110.38 157.38 107.832 157.38 104.69C157.38 101.547 154.833 99 151.69 99C148.548 99 146 101.547 146 104.69C146 107.832 148.548 110.38 151.69 110.38Z" fill="#F1CB86"/>
<path d="M347.301 316.178C350.444 316.178 352.991 313.63 352.991 310.488C352.991 307.345 350.444 304.798 347.301 304.798C344.159 304.798 341.611 307.345 341.611 310.488C341.611 313.63 344.159 316.178 347.301 316.178Z" fill="#F4D8A5"/>
<path d="M405.873 204.695C409.016 204.695 411.563 202.148 411.563 199.005C411.563 195.863 409.016 193.315 405.873 193.315C402.731 193.315 400.183 195.863 400.183 199.005C400.183 202.148 402.731 204.695 405.873 204.695Z" fill="#F1CB86"/>
<path d="M227.391 59.4187C230.533 59.4187 233.081 56.8712 233.081 53.7287C233.081 50.5862 230.533 48.0387 227.391 48.0387C224.248 48.0387 221.701 50.5862 221.701 53.7287C221.701 56.8712 224.248 59.4187 227.391 59.4187Z" fill="#F4D8A5"/>
<path d="M194.007 174.572C195.387 174.572 196.507 173.453 196.507 172.072C196.507 170.691 195.387 169.572 194.007 169.572C192.626 169.572 191.507 170.691 191.507 172.072C191.507 173.453 192.626 174.572 194.007 174.572Z" fill="#F4D8A5"/>
<path d="M294.036 247.962C297.178 247.962 299.726 245.414 299.726 242.272C299.726 239.129 297.178 236.582 294.036 236.582C290.893 236.582 288.346 239.129 288.346 242.272C288.346 245.414 290.893 247.962 294.036 247.962Z" fill="#F4D8A5"/>
<g clip-path="url(#clip0)">
<path d="M287.308 100.867C295.055 112.951 308.592 120.966 324.004 121C347.88 121.051 367.485 101.738 367.774 77.8638C368.045 55.3996 351.355 36.7767 329.706 34.0046C329.244 33.9453 328.942 34.4746 329.224 34.8467C334.443 41.7559 337.538 50.3582 337.538 59.6854C337.538 82.4656 319.072 100.932 296.292 100.932C293.402 100.932 290.584 100.636 287.862 100.07C287.405 99.9745 287.056 100.474 287.308 100.867Z" fill="#EFDA45"/>
<path d="M287.861 100.069C287.405 99.974 287.056 100.472 287.307 100.864C295.07 112.975 308.648 121 324.1 121C348.223 121 367.776 101.445 367.776 77.3238C367.776 67.6708 364.645 58.7503 359.342 51.5194C360.546 55.4692 361.205 59.6566 361.231 63.9949C361.378 88.2992 341.858 107.943 317.554 107.942C308.746 107.941 300.548 105.335 293.69 100.849C291.705 100.727 289.759 100.464 287.861 100.069Z" fill="#EDC148"/>
</g>
<defs>
<clipPath id="clip0">
<rect width="87" height="87" fill="white" transform="matrix(-1 0 0 1 371 34)"/>
</clipPath>
</defs>
</svg>
