<svg width="416" height="363" viewBox="0 0 416 363" fill="none" xmlns="http://www.w3.org/2000/svg">
<path d="M93.5 33L19 107.5H168L93.5 33Z" fill="#DFBF97"/>
<path d="M23.5 103L93.5 33.5V56V103H23.5Z" fill="#FAE5BB"/>
<path d="M274.5 0L159 115.5H390L274.5 0Z" fill="#E7BC85"/>
<path d="M165.977 108.523L274.5 0.775169V35.6577V108.523H165.977Z" fill="#FEDD9D"/>
<path d="M415 103H1V362.5H415V103Z" fill="#FEDD9D"/>
<path d="M250 167C222.333 190.667 157.5 239.5 119.5 245.5C82.2413 251.383 25.9156 197.822 0.952402 168.708L-0.5 363H416V103.5C361.6 96.3 278.333 142.167 250 167Z" fill="#E7BC85"/>
</svg>
