<svg width="420" height="452" viewBox="0 0 420 452" fill="none" xmlns="http://www.w3.org/2000/svg">
<path d="M420 192.133H55.1105L237.555 0L420 192.133Z" fill="#FEDD9D"/>
<path d="M237.555 0L180.537 192.133H55.1105L237.555 0Z" fill="#E7BC85"/>
<path d="M194.207 192.133H2L98.1041 90.9256L194.207 192.133Z" fill="#FEDD9D"/>
<path d="M98.1041 90.9256L68.0693 192.133H2L98.1041 90.9256Z" fill="#E7BC85"/>
<path d="M419 192H2V452H419V192Z" fill="#E7BC85"/>
<path d="M253.206 256.194C225.241 279.837 159.707 328.622 121.297 334.616C83.6353 340.493 26.701 286.985 1.46809 257.901L0 452H421V192.757C366.012 185.564 281.846 231.385 253.206 256.194Z" fill="#FEDD9D"/>
</svg>
