<svg width="19" height="20" viewBox="0 0 19 20" fill="none" xmlns="http://www.w3.org/2000/svg">
<path fill-rule="evenodd" clip-rule="evenodd" d="M9.31783 7.96454V19.9391C9.31783 19.9391 2.75877 17.1322 0.0100013 15.9592L0.00227356 15.9459V3.97919L0.0100013 3.99392L9.30957 7.97389L9.31783 7.96454Z" fill="#FCD062"/>
<path fill-rule="evenodd" clip-rule="evenodd" d="M18.6261 3.9782L18.6184 3.99284L9.31812 7.97343V19.9397L18.6184 15.9592L18.6261 15.9445V3.9782Z" fill="#F8AA3A"/>
<path fill-rule="evenodd" clip-rule="evenodd" d="M9.16258 0L0 3.9796V3.98969L9.31785 7.98799L18.6415 3.97963L9.41418 2.24643e-05H9.31785H9.16258V0Z" fill="#F8B84E"/>
<path d="M13.2323 14.1612L10.9074 15.156M15.5572 14.7576L13.2323 15.7525L10.9074 16.7474L15.5572 14.7576Z" stroke="#1C4D7E" stroke-width="0.90822" stroke-linecap="round" stroke-linejoin="round"/>
<path fill-rule="evenodd" clip-rule="evenodd" d="M12.1928 1.20249L12.1354 1.22357L2.88004 5.22551V10.8461L4.5232 10.0356L6.1442 12.4671L6.14256 6.62666L15.3999 2.58287L12.1928 1.20249Z" fill="#E9EDED"/>
</svg>
