<svg width="56" height="56" viewBox="0 0 56 56" fill="none" xmlns="http://www.w3.org/2000/svg">
<path d="M55 44H1C0.734784 44 0.48043 44.1054 0.292893 44.2929C0.105357 44.4804 0 44.7348 0 45V47C0 47.7956 0.316071 48.5587 0.87868 49.1213C1.44129 49.6839 2.20435 50 3 50H53C53.7956 50 54.5587 49.6839 55.1213 49.1213C55.6839 48.5587 56 47.7956 56 47V45C56 44.7348 55.8946 44.4804 55.7071 44.2929C55.5196 44.1054 55.2652 44 55 44ZM54 47C54 47.2652 53.8946 47.5196 53.7071 47.7071C53.5196 47.8946 53.2652 48 53 48H3C2.73478 48 2.48043 47.8946 2.29289 47.7071C2.10536 47.5196 2 47.2652 2 47V46H54V47Z" fill="#0887AF"/>
<path opacity="0.9" d="M54 46V47C54 47.2652 53.8946 47.5196 53.7071 47.7071C53.5196 47.8946 53.2652 48 53 48H3C2.73478 48 2.48043 47.8946 2.29289 47.7071C2.10536 47.5196 2 47.2652 2 47V46H54Z" fill="#0887AF"/>
<path d="M55 38H1C0.734784 38 0.48043 38.1054 0.292893 38.2929C0.105357 38.4804 0 38.7348 0 39V45C0 45.2652 0.105357 45.5196 0.292893 45.7071C0.48043 45.8946 0.734784 46 1 46H55C55.2652 46 55.5196 45.8946 55.7071 45.7071C55.8946 45.5196 56 45.2652 56 45V39C56 38.7348 55.8946 38.4804 55.7071 38.2929C55.5196 38.1054 55.2652 38 55 38ZM2 44V40H54V44H2ZM12 48H6C5.73478 48 5.48043 48.1054 5.29289 48.2929C5.10536 48.4804 5 48.7348 5 49V53C5 53.7956 5.31607 54.5587 5.87868 55.1213C6.44129 55.6839 7.20435 56 8 56H10C10.7956 56 11.5587 55.6839 12.1213 55.1213C12.6839 54.5587 13 53.7956 13 53V49C13 48.7348 12.8946 48.4804 12.7071 48.2929C12.5196 48.1054 12.2652 48 12 48ZM11 53C11 53.2652 10.8946 53.5196 10.7071 53.7071C10.5196 53.8946 10.2652 54 10 54H8C7.73478 54 7.48043 53.8946 7.29289 53.7071C7.10536 53.5196 7 53.2652 7 53V50H11V53Z" fill="#1F3D78"/>
<path opacity="0.9" d="M11 50V53C11 53.2652 10.8946 53.5196 10.7071 53.7071C10.5196 53.8946 10.2652 54 10 54H8C7.73478 54 7.48043 53.8946 7.29289 53.7071C7.10536 53.5196 7 53.2652 7 53V50H11Z" fill="#1F3D78"/>
<path d="M50 48H44C43.7348 48 43.4804 48.1054 43.2929 48.2929C43.1054 48.4804 43 48.7348 43 49V53C43 53.7956 43.3161 54.5587 43.8787 55.1213C44.4413 55.6839 45.2044 56 46 56H48C48.7956 56 49.5587 55.6839 50.1213 55.1213C50.6839 54.5587 51 53.7956 51 53V49C51 48.7348 50.8946 48.4804 50.7071 48.2929C50.5196 48.1054 50.2652 48 50 48ZM49 53C49 53.2652 48.8946 53.5196 48.7071 53.7071C48.5196 53.8946 48.2652 54 48 54H46C45.7348 54 45.4804 53.8946 45.2929 53.7071C45.1054 53.5196 45 53.2652 45 53V50H49V53Z" fill="#1F3D78"/>
<circle opacity="0.7" cx="47" cy="9" r="7" fill="#C4C4C4"/>
<path opacity="0.9" d="M49 50V53C49 53.2652 48.8946 53.5196 48.7071 53.7071C48.5196 53.8946 48.2652 54 48 54H46C45.7348 54 45.4804 53.8946 45.2929 53.7071C45.1054 53.5196 45 53.2652 45 53V50H49ZM48 10.28V7C48 6.73478 47.8946 6.48043 47.7071 6.29289C47.5196 6.10536 47.2652 6 47 6C46.7348 6 46.4804 6.10536 46.2929 6.29289C46.1054 6.48043 46 6.73478 46 7V10.28C45.6187 10.5001 45.3207 10.8399 45.1522 11.2467C44.9838 11.6534 44.9542 12.1044 45.0681 12.5297C45.1821 12.955 45.4332 13.3307 45.7825 13.5988C46.1318 13.8668 46.5597 14.0121 47 14.0121C47.4403 14.0121 47.8682 13.8668 48.2175 13.5988C48.5668 13.3307 48.8179 12.955 48.9319 12.5297C49.0458 12.1044 49.0162 11.6534 48.8478 11.2467C48.6793 10.8399 48.3813 10.5001 48 10.28Z" fill="#1F3D78"/>
<path d="M49 20H45C44.7348 20 44.4804 20.1054 44.2929 20.2929C44.1054 20.4804 44 20.7348 44 21V39C44 39.2652 44.1054 39.5196 44.2929 39.7071C44.4804 39.8946 44.7348 40 45 40H49C49.2652 40 49.5196 39.8946 49.7071 39.7071C49.8946 39.5196 50 39.2652 50 39V21C50 20.7348 49.8946 20.4804 49.7071 20.2929C49.5196 20.1054 49.2652 20 49 20ZM46 38V22H48V38H46Z" fill="#C4C4C4"/>
<path opacity="0.7" d="M48 22H46V38H48V22Z" fill="#C4C4C4"/>
<path d="M47 2.24323e-07C45.1769 -0.000406722 43.3966 0.552879 41.8949 1.58661C40.3932 2.62035 39.2408 4.08578 38.5903 5.78892C37.9398 7.49206 37.822 9.35259 38.2523 11.1242C38.6826 12.8958 39.6408 14.495 41 15.71L41.37 16.02C41.8739 16.4137 42.4207 16.7491 43 17.02L43.47 17.24C43.65 17.31 43.83 17.39 44.02 17.45L44.45 17.58L44.95 17.71C46.2963 18.0433 47.7037 18.0433 49.05 17.71L49.55 17.58L49.98 17.45C50.17 17.39 50.35 17.31 50.53 17.24L51 17.02C51.5754 16.7477 52.1187 16.4123 52.62 16.02L53 15.7C53.9478 14.8608 54.7056 13.8291 55.223 12.6737C55.7403 11.5183 56.0052 10.2659 56 9C56 6.61305 55.0518 4.32387 53.364 2.63604C51.6761 0.948212 49.3869 2.24323e-07 47 2.24323e-07V2.24323e-07ZM51.37 14.46C50.1293 15.4515 48.5882 15.9916 47 15.9916C45.4118 15.9916 43.8707 15.4515 42.63 14.46V14.46C41.5017 13.5515 40.683 12.3153 40.2868 10.9219C39.8907 9.52847 39.9366 8.04648 40.4182 6.68026C40.8999 5.31404 41.7936 4.13091 42.976 3.29401C44.1584 2.45711 45.5714 2.00767 47.02 2.00767C48.4686 2.00767 49.8816 2.45711 51.064 3.29401C52.2464 4.13091 53.1401 5.31404 53.6218 6.68026C54.1034 8.04648 54.1493 9.52847 53.7532 10.9219C53.357 12.3153 52.5383 13.5515 51.41 14.46H51.37Z" fill="#C4C4C4"/>
<path d="M52.43 14.34C52.26 14.2579 52.0702 14.2256 51.8827 14.2468C51.6951 14.2681 51.5173 14.342 51.37 14.46C50.1293 15.4515 48.5882 15.9916 47 15.9916C45.4118 15.9916 43.8707 15.4515 42.63 14.46V14.46C42.4814 14.3514 42.3058 14.2859 42.1223 14.2708C41.9389 14.2556 41.7549 14.2914 41.5905 14.3741C41.4261 14.4568 41.2877 14.5833 41.1906 14.7396C41.0935 14.8959 41.0414 15.076 41.04 15.26V18C41.0407 18.8863 41.3356 19.7472 41.8786 20.4477C42.4216 21.1481 43.1819 21.6484 44.04 21.87C44.3528 21.9557 44.6757 21.9994 45 22H49C49.3377 22.003 49.6743 21.9593 50 21.87C50.8581 21.6484 51.6184 21.1481 52.1614 20.4477C52.7044 19.7472 52.9993 18.8863 53 18V15.24C52.9995 15.0515 52.9457 14.867 52.8448 14.7078C52.744 14.5485 52.6002 14.421 52.43 14.34ZM51 18C51 18.5304 50.7893 19.0391 50.4142 19.4142C50.0391 19.7893 49.5304 20 49 20H45C44.4696 20 43.9609 19.7893 43.5858 19.4142C43.2107 19.0391 43 18.5304 43 18V17.06L43.47 17.28L44.02 17.49L44.45 17.62L44.95 17.75C46.2991 18.0601 47.7009 18.0601 49.05 17.75L49.55 17.62L49.98 17.49L50.53 17.28L51 17.06V18Z" fill="#C4C4C4"/>
<path opacity="0.7" d="M51 17.06V18C51 18.5304 50.7893 19.0391 50.4142 19.4142C50.0391 19.7893 49.5304 20 49 20H45C44.4696 20 43.9609 19.7893 43.5858 19.4142C43.2107 19.0391 43 18.5304 43 18V17.06L43.47 17.28L44.02 17.49L44.45 17.62C44.6124 17.6785 44.7797 17.722 44.95 17.75C46.2963 18.0833 47.7037 18.0833 49.05 17.75C49.2203 17.722 49.3876 17.6785 49.55 17.62L49.98 17.49L50.53 17.28L51 17.06Z" fill="#C4C4C4"/>
<rect opacity="0.9" x="2" y="40" width="52" height="4" fill="#1F3D78"/>
<path fill-rule="evenodd" clip-rule="evenodd" d="M13.3178 31.8949V43.8695C13.3178 43.8695 6.75877 41.0626 4.01 39.8895L4.00227 39.8763V27.9095L4.01 27.9243L13.3096 31.9042L13.3178 31.8949Z" fill="#FCD062"/>
<path fill-rule="evenodd" clip-rule="evenodd" d="M22.6261 27.9085L22.6184 27.9232L13.3181 31.9038V43.8701L22.6184 39.8895L22.6261 39.8749V27.9085Z" fill="#F8AA3A"/>
<path fill-rule="evenodd" clip-rule="evenodd" d="M13.1626 23.9304L4 27.91V27.92L13.3179 31.9183L22.6415 27.91L13.4142 23.9304H13.3179H13.1626V23.9304Z" fill="#F8B84E"/>
<path d="M17.2323 38.0915L14.9074 39.0863M19.5572 38.6879L17.2323 39.6828L14.9074 40.6777L19.5572 38.6879Z" stroke="#1C4D7E" stroke-width="0.90822" stroke-linecap="round" stroke-linejoin="round"/>
<path fill-rule="evenodd" clip-rule="evenodd" d="M16.1928 25.1328L16.1354 25.1539L6.88004 29.1559V34.7764L8.5232 33.9659L10.1442 36.3974L10.1426 30.557L19.3999 26.5132L16.1928 25.1328Z" fill="#E9EDED"/>
<path fill-rule="evenodd" clip-rule="evenodd" d="M13.3178 31.8949V43.8695C13.3178 43.8695 6.75877 41.0626 4.01 39.8895L4.00227 39.8763V27.9095L4.01 27.9243L13.3096 31.9042L13.3178 31.8949Z" fill="#FCD062"/>
<path fill-rule="evenodd" clip-rule="evenodd" d="M22.6261 27.9085L22.6184 27.9232L13.3181 31.9038V43.8701L22.6184 39.8895L22.6261 39.8749V27.9085Z" fill="#F8AA3A"/>
<path fill-rule="evenodd" clip-rule="evenodd" d="M13.1626 23.9304L4 27.91V27.92L13.3179 31.9183L22.6415 27.91L13.4142 23.9304H13.3179H13.1626V23.9304Z" fill="#F8B84E"/>
<path d="M17.2323 38.0915L14.9074 39.0863M19.5572 38.6879L17.2323 39.6828L14.9074 40.6777L19.5572 38.6879Z" stroke="#1C4D7E" stroke-width="0.90822" stroke-linecap="round" stroke-linejoin="round"/>
<path fill-rule="evenodd" clip-rule="evenodd" d="M16.1928 25.1328L16.1354 25.1539L6.88004 29.1559V34.7764L8.5232 33.9659L10.1442 36.3974L10.1426 30.557L19.3999 26.5132L16.1928 25.1328Z" fill="#E9EDED"/>
<path fill-rule="evenodd" clip-rule="evenodd" d="M32.6764 31.8949V43.8695C32.6764 43.8695 26.1173 41.0626 23.3685 39.8895L23.3608 39.8763V27.9095L23.3685 27.9243L32.6681 31.9042L32.6764 31.8949Z" fill="#FCD062"/>
<path fill-rule="evenodd" clip-rule="evenodd" d="M41.9846 27.9085L41.9769 27.9232L32.6767 31.9038V43.8701L41.9769 39.8895L41.9846 39.8749V27.9085Z" fill="#F8AA3A"/>
<path fill-rule="evenodd" clip-rule="evenodd" d="M32.5211 23.9304L23.3585 27.91V27.92L32.6764 31.9183L42 27.91L32.7727 23.9304H32.6764H32.5211V23.9304Z" fill="#F8B84E"/>
<path d="M36.5908 38.0915L34.266 39.0863M38.9157 38.6879L36.5908 39.6828L34.266 40.6777L38.9157 38.6879Z" stroke="#1C4D7E" stroke-width="0.90822" stroke-linecap="round" stroke-linejoin="round"/>
<path fill-rule="evenodd" clip-rule="evenodd" d="M35.5514 25.1328L35.494 25.1539L26.2386 29.1559V34.7764L27.8817 33.9659L29.5027 36.3974L29.5011 30.557L38.7585 26.5132L35.5514 25.1328Z" fill="#E9EDED"/>
<path fill-rule="evenodd" clip-rule="evenodd" d="M33.3178 18.9645V30.9391C33.3178 30.9391 26.7588 28.1322 24.01 26.9592L24.0023 26.9459V14.9792L24.01 14.9939L33.3096 18.9739L33.3178 18.9645Z" fill="#FCD062"/>
<path fill-rule="evenodd" clip-rule="evenodd" d="M42.6261 14.9782L42.6184 14.9928L33.3181 18.9734V30.9397L42.6184 26.9592L42.6261 26.9445V14.9782Z" fill="#F8AA3A"/>
<path fill-rule="evenodd" clip-rule="evenodd" d="M33.1626 11L24 14.9796V14.9897L33.3179 18.988L42.6415 14.9796L33.4142 11H33.3179H33.1626V11Z" fill="#F8B84E"/>
<path d="M37.2323 25.1612L34.9074 26.156M39.5572 25.7576L37.2323 26.7525L34.9074 27.7474L39.5572 25.7576Z" stroke="#1C4D7E" stroke-width="0.90822" stroke-linecap="round" stroke-linejoin="round"/>
<path fill-rule="evenodd" clip-rule="evenodd" d="M36.1928 12.2025L36.1354 12.2236L26.88 16.2255V21.8461L28.5232 21.0356L30.1442 23.4671L30.1426 17.6267L39.3999 13.5829L36.1928 12.2025Z" fill="#E9EDED"/>
</svg>
