<svg width="56" height="58" viewBox="0 0 56 58" fill="none" xmlns="http://www.w3.org/2000/svg">
<path d="M55 46H1C0.734784 46 0.48043 46.1054 0.292893 46.2929C0.105357 46.4804 0 46.7348 0 47V49C0 49.7956 0.316071 50.5587 0.87868 51.1213C1.44129 51.6839 2.20435 52 3 52H53C53.7956 52 54.5587 51.6839 55.1213 51.1213C55.6839 50.5587 56 49.7956 56 49V47C56 46.7348 55.8946 46.4804 55.7071 46.2929C55.5196 46.1054 55.2652 46 55 46ZM54 49C54 49.2652 53.8946 49.5196 53.7071 49.7071C53.5196 49.8946 53.2652 50 53 50H3C2.73478 50 2.48043 49.8946 2.29289 49.7071C2.10536 49.5196 2 49.2652 2 49V48H54V49Z" fill="#0887AF"/>
<path opacity="0.9" d="M54 48V49C54 49.2652 53.8946 49.5196 53.7071 49.7071C53.5196 49.8946 53.2652 50 53 50H3C2.73478 50 2.48043 49.8946 2.29289 49.7071C2.10536 49.5196 2 49.2652 2 49V48H54Z" fill="#0887AF"/>
<path d="M55 40H1C0.734784 40 0.48043 40.1054 0.292893 40.2929C0.105357 40.4804 0 40.7348 0 41V47C0 47.2652 0.105357 47.5196 0.292893 47.7071C0.48043 47.8946 0.734784 48 1 48H55C55.2652 48 55.5196 47.8946 55.7071 47.7071C55.8946 47.5196 56 47.2652 56 47V41C56 40.7348 55.8946 40.4804 55.7071 40.2929C55.5196 40.1054 55.2652 40 55 40ZM2 46V42H54V46H2ZM12 50H6C5.73478 50 5.48043 50.1054 5.29289 50.2929C5.10536 50.4804 5 50.7348 5 51V55C5 55.7956 5.31607 56.5587 5.87868 57.1213C6.44129 57.6839 7.20435 58 8 58H10C10.7956 58 11.5587 57.6839 12.1213 57.1213C12.6839 56.5587 13 55.7956 13 55V51C13 50.7348 12.8946 50.4804 12.7071 50.2929C12.5196 50.1054 12.2652 50 12 50ZM11 55C11 55.2652 10.8946 55.5196 10.7071 55.7071C10.5196 55.8946 10.2652 56 10 56H8C7.73478 56 7.48043 55.8946 7.29289 55.7071C7.10536 55.5196 7 55.2652 7 55V52H11V55Z" fill="#1F3D78"/>
<path opacity="0.9" d="M11 52V55C11 55.2652 10.8946 55.5196 10.7071 55.7071C10.5196 55.8946 10.2652 56 10 56H8C7.73478 56 7.48043 55.8946 7.29289 55.7071C7.10536 55.5196 7 55.2652 7 55V52H11Z" fill="#1F3D78"/>
<path d="M50 50H44C43.7348 50 43.4804 50.1054 43.2929 50.2929C43.1054 50.4804 43 50.7348 43 51V55C43 55.7956 43.3161 56.5587 43.8787 57.1213C44.4413 57.6839 45.2044 58 46 58H48C48.7956 58 49.5587 57.6839 50.1213 57.1213C50.6839 56.5587 51 55.7956 51 55V51C51 50.7348 50.8946 50.4804 50.7071 50.2929C50.5196 50.1054 50.2652 50 50 50ZM49 55C49 55.2652 48.8946 55.5196 48.7071 55.7071C48.5196 55.8946 48.2652 56 48 56H46C45.7348 56 45.4804 55.8946 45.2929 55.7071C45.1054 55.5196 45 55.2652 45 55V52H49V55Z" fill="#1F3D78"/>
<circle opacity="0.7" cx="47" cy="11" r="7" fill="#C4C4C4"/>
<path opacity="0.9" d="M49 52V55C49 55.2652 48.8946 55.5196 48.7071 55.7071C48.5196 55.8946 48.2652 56 48 56H46C45.7348 56 45.4804 55.8946 45.2929 55.7071C45.1054 55.5196 45 55.2652 45 55V52H49ZM48 12.28V9C48 8.73478 47.8946 8.48043 47.7071 8.29289C47.5196 8.10536 47.2652 8 47 8C46.7348 8 46.4804 8.10536 46.2929 8.29289C46.1054 8.48043 46 8.73478 46 9V12.28C45.6187 12.5001 45.3207 12.8399 45.1522 13.2467C44.9838 13.6534 44.9542 14.1044 45.0681 14.5297C45.1821 14.955 45.4332 15.3307 45.7825 15.5988C46.1318 15.8668 46.5597 16.0121 47 16.0121C47.4403 16.0121 47.8682 15.8668 48.2175 15.5988C48.5668 15.3307 48.8179 14.955 48.9319 14.5297C49.0458 14.1044 49.0162 13.6534 48.8478 13.2467C48.6793 12.8399 48.3813 12.5001 48 12.28Z" fill="#1F3D78"/>
<path d="M49 22H45C44.7348 22 44.4804 22.1054 44.2929 22.2929C44.1054 22.4804 44 22.7348 44 23V41C44 41.2652 44.1054 41.5196 44.2929 41.7071C44.4804 41.8946 44.7348 42 45 42H49C49.2652 42 49.5196 41.8946 49.7071 41.7071C49.8946 41.5196 50 41.2652 50 41V23C50 22.7348 49.8946 22.4804 49.7071 22.2929C49.5196 22.1054 49.2652 22 49 22ZM46 40V24H48V40H46Z" fill="#C4C4C4"/>
<path opacity="0.7" d="M48 24H46V40H48V24Z" fill="#C4C4C4"/>
<path d="M47 2C45.1769 1.99959 43.3966 2.55288 41.8949 3.58661C40.3932 4.62035 39.2408 6.08578 38.5903 7.78892C37.9398 9.49206 37.822 11.3526 38.2523 13.1242C38.6826 14.8958 39.6408 16.495 41 17.71L41.37 18.02C41.8739 18.4137 42.4207 18.7491 43 19.02L43.47 19.24C43.65 19.31 43.83 19.39 44.02 19.45L44.45 19.58L44.95 19.71C46.2963 20.0433 47.7037 20.0433 49.05 19.71L49.55 19.58L49.98 19.45C50.17 19.39 50.35 19.31 50.53 19.24L51 19.02C51.5754 18.7477 52.1187 18.4123 52.62 18.02L53 17.7C53.9478 16.8608 54.7056 15.8291 55.223 14.6737C55.7403 13.5183 56.0052 12.2659 56 11C56 8.61305 55.0518 6.32387 53.364 4.63604C51.6761 2.94821 49.3869 2 47 2V2ZM51.37 16.46C50.1293 17.4515 48.5882 17.9916 47 17.9916C45.4118 17.9916 43.8707 17.4515 42.63 16.46V16.46C41.5017 15.5515 40.683 14.3153 40.2868 12.9219C39.8907 11.5285 39.9366 10.0465 40.4182 8.68026C40.8999 7.31404 41.7936 6.13091 42.976 5.29401C44.1584 4.45711 45.5714 4.00767 47.02 4.00767C48.4686 4.00767 49.8816 4.45711 51.064 5.29401C52.2464 6.13091 53.1401 7.31404 53.6218 8.68026C54.1034 10.0465 54.1493 11.5285 53.7532 12.9219C53.357 14.3153 52.5383 15.5515 51.41 16.46H51.37Z" fill="#C4C4C4"/>
<path d="M52.43 16.34C52.26 16.2579 52.0702 16.2256 51.8827 16.2468C51.6951 16.2681 51.5173 16.342 51.37 16.46C50.1293 17.4515 48.5882 17.9916 47 17.9916C45.4118 17.9916 43.8707 17.4515 42.63 16.46V16.46C42.4814 16.3514 42.3058 16.2859 42.1223 16.2708C41.9389 16.2556 41.7549 16.2914 41.5905 16.3741C41.4261 16.4568 41.2877 16.5833 41.1906 16.7396C41.0935 16.8959 41.0414 17.076 41.04 17.26V20C41.0407 20.8863 41.3356 21.7472 41.8786 22.4477C42.4216 23.1481 43.1819 23.6484 44.04 23.87C44.3528 23.9557 44.6757 23.9994 45 24H49C49.3377 24.003 49.6743 23.9593 50 23.87C50.8581 23.6484 51.6184 23.1481 52.1614 22.4477C52.7044 21.7472 52.9993 20.8863 53 20V17.24C52.9995 17.0515 52.9457 16.867 52.8448 16.7078C52.744 16.5485 52.6002 16.421 52.43 16.34ZM51 20C51 20.5304 50.7893 21.0391 50.4142 21.4142C50.0391 21.7893 49.5304 22 49 22H45C44.4696 22 43.9609 21.7893 43.5858 21.4142C43.2107 21.0391 43 20.5304 43 20V19.06L43.47 19.28L44.02 19.49L44.45 19.62L44.95 19.75C46.2991 20.0601 47.7009 20.0601 49.05 19.75L49.55 19.62L49.98 19.49L50.53 19.28L51 19.06V20Z" fill="#C4C4C4"/>
<path opacity="0.7" d="M51 19.06V20C51 20.5304 50.7893 21.0391 50.4142 21.4142C50.0391 21.7893 49.5304 22 49 22H45C44.4696 22 43.9609 21.7893 43.5858 21.4142C43.2107 21.0391 43 20.5304 43 20V19.06L43.47 19.28L44.02 19.49L44.45 19.62C44.6124 19.6785 44.7797 19.722 44.95 19.75C46.2963 20.0833 47.7037 20.0833 49.05 19.75C49.2203 19.722 49.3876 19.6785 49.55 19.62L49.98 19.49L50.53 19.28L51 19.06Z" fill="#C4C4C4"/>
<rect opacity="0.9" x="2" y="42" width="52" height="4" fill="#1F3D78"/>
<path fill-rule="evenodd" clip-rule="evenodd" d="M13.3178 33.8949V45.8695C13.3178 45.8695 6.75877 43.0626 4.01 41.8895L4.00227 41.8763V29.9095L4.01 29.9243L13.3096 33.9042L13.3178 33.8949Z" fill="#FCD062"/>
<path fill-rule="evenodd" clip-rule="evenodd" d="M22.6261 29.9085L22.6184 29.9232L13.3181 33.9038V45.8701L22.6184 41.8895L22.6261 41.8749V29.9085Z" fill="#F8AA3A"/>
<path fill-rule="evenodd" clip-rule="evenodd" d="M13.1626 25.9304L4 29.91V29.92L13.3179 33.9183L22.6415 29.91L13.4142 25.9304H13.3179H13.1626V25.9304Z" fill="#F8B84E"/>
<path d="M17.2323 40.0915L14.9074 41.0863M19.5572 40.6879L17.2323 41.6828L14.9074 42.6777L19.5572 40.6879Z" stroke="#1C4D7E" stroke-width="0.90822" stroke-linecap="round" stroke-linejoin="round"/>
<path fill-rule="evenodd" clip-rule="evenodd" d="M16.1928 27.1328L16.1354 27.1539L6.88004 31.1559V36.7764L8.5232 35.9659L10.1442 38.3974L10.1426 32.557L19.3999 28.5132L16.1928 27.1328Z" fill="#E9EDED"/>
<path fill-rule="evenodd" clip-rule="evenodd" d="M13.3178 33.8949V45.8695C13.3178 45.8695 6.75877 43.0626 4.01 41.8895L4.00227 41.8763V29.9095L4.01 29.9243L13.3096 33.9042L13.3178 33.8949Z" fill="#FCD062"/>
<path fill-rule="evenodd" clip-rule="evenodd" d="M22.6261 29.9085L22.6184 29.9232L13.3181 33.9038V45.8701L22.6184 41.8895L22.6261 41.8749V29.9085Z" fill="#F8AA3A"/>
<path fill-rule="evenodd" clip-rule="evenodd" d="M13.1626 25.9304L4 29.91V29.92L13.3179 33.9183L22.6415 29.91L13.4142 25.9304H13.3179H13.1626V25.9304Z" fill="#F8B84E"/>
<path d="M17.2323 40.0915L14.9074 41.0863M19.5572 40.6879L17.2323 41.6828L14.9074 42.6777L19.5572 40.6879Z" stroke="#1C4D7E" stroke-width="0.90822" stroke-linecap="round" stroke-linejoin="round"/>
<path fill-rule="evenodd" clip-rule="evenodd" d="M16.1928 27.1328L16.1354 27.1539L6.88004 31.1559V36.7764L8.5232 35.9659L10.1442 38.3974L10.1426 32.557L19.3999 28.5132L16.1928 27.1328Z" fill="#E9EDED"/>
<path fill-rule="evenodd" clip-rule="evenodd" d="M32.6764 33.8949V45.8695C32.6764 45.8695 26.1173 43.0626 23.3685 41.8895L23.3608 41.8763V29.9095L23.3685 29.9243L32.6681 33.9042L32.6764 33.8949Z" fill="#FCD062"/>
<path fill-rule="evenodd" clip-rule="evenodd" d="M41.9846 29.9085L41.9769 29.9232L32.6767 33.9038V45.8701L41.9769 41.8895L41.9846 41.8749V29.9085Z" fill="#F8AA3A"/>
<path fill-rule="evenodd" clip-rule="evenodd" d="M32.5211 25.9304L23.3585 29.91V29.92L32.6764 33.9183L42 29.91L32.7727 25.9304H32.6764H32.5211V25.9304Z" fill="#F8B84E"/>
<path d="M36.5908 40.0915L34.266 41.0863M38.9157 40.6879L36.5908 41.6828L34.266 42.6777L38.9157 40.6879Z" stroke="#1C4D7E" stroke-width="0.90822" stroke-linecap="round" stroke-linejoin="round"/>
<path fill-rule="evenodd" clip-rule="evenodd" d="M35.5514 27.1328L35.494 27.1539L26.2386 31.1559V36.7764L27.8817 35.9659L29.5027 38.3974L29.5011 32.557L38.7585 28.5132L35.5514 27.1328Z" fill="#E9EDED"/>
<path fill-rule="evenodd" clip-rule="evenodd" d="M14.3178 21.8949V33.8695C14.3178 33.8695 7.75877 31.0626 5.01 29.8895L5.00227 29.8763V17.9095L5.01 17.9243L14.3096 21.9042L14.3178 21.8949Z" fill="#FCD062"/>
<path fill-rule="evenodd" clip-rule="evenodd" d="M23.6261 17.9085L23.6184 17.9232L14.3181 21.9038V33.8701L23.6184 29.8895L23.6261 29.8749V17.9085Z" fill="#F8AA3A"/>
<path fill-rule="evenodd" clip-rule="evenodd" d="M14.1626 13.9304L5 17.91V17.92L14.3179 21.9183L23.6415 17.91L14.4142 13.9304H14.3179H14.1626V13.9304Z" fill="#F8B84E"/>
<path d="M18.2323 28.0915L15.9074 29.0863M20.5572 28.6879L18.2323 29.6828L15.9074 30.6777L20.5572 28.6879Z" stroke="#1C4D7E" stroke-width="0.90822" stroke-linecap="round" stroke-linejoin="round"/>
<path fill-rule="evenodd" clip-rule="evenodd" d="M17.1928 15.1328L17.1354 15.1539L7.88004 19.1559V24.7764L9.5232 23.9659L11.1442 26.3974L11.1426 20.557L20.3999 16.5132L17.1928 15.1328Z" fill="#E9EDED"/>
<path fill-rule="evenodd" clip-rule="evenodd" d="M33.3178 20.9645V32.9391C33.3178 32.9391 26.7588 30.1322 24.01 28.9592L24.0023 28.9459V16.9792L24.01 16.9939L33.3096 20.9739L33.3178 20.9645Z" fill="#FCD062"/>
<path fill-rule="evenodd" clip-rule="evenodd" d="M42.6261 16.9782L42.6184 16.9928L33.3181 20.9734V32.9397L42.6184 28.9592L42.6261 28.9445V16.9782Z" fill="#F8AA3A"/>
<path fill-rule="evenodd" clip-rule="evenodd" d="M33.1626 13L24 16.9796V16.9897L33.3179 20.988L42.6415 16.9796L33.4142 13H33.3179H33.1626V13Z" fill="#F8B84E"/>
<path d="M37.2323 27.1612L34.9074 28.156M39.5572 27.7576L37.2323 28.7525L34.9074 29.7474L39.5572 27.7576Z" stroke="#1C4D7E" stroke-width="0.90822" stroke-linecap="round" stroke-linejoin="round"/>
<path fill-rule="evenodd" clip-rule="evenodd" d="M36.1928 14.2025L36.1354 14.2236L26.88 18.2255V23.8461L28.5232 23.0356L30.1442 25.4671L30.1426 19.6267L39.3999 15.5829L36.1928 14.2025Z" fill="#E9EDED"/>
<path fill-rule="evenodd" clip-rule="evenodd" d="M23.3178 7.96454V19.9391C23.3178 19.9391 16.7588 17.1322 14.01 15.9592L14.0023 15.9459V3.97919L14.01 3.99392L23.3096 7.97389L23.3178 7.96454Z" fill="#FCD062"/>
<path fill-rule="evenodd" clip-rule="evenodd" d="M32.6261 3.9782L32.6184 3.99284L23.3181 7.97343V19.9397L32.6184 15.9592L32.6261 15.9445V3.9782Z" fill="#F8AA3A"/>
<path fill-rule="evenodd" clip-rule="evenodd" d="M23.1626 0L14 3.9796V3.98969L23.3179 7.98799L32.6415 3.97963L23.4142 2.24643e-05H23.3179H23.1626V0Z" fill="#F8B84E"/>
<path d="M27.2323 14.1612L24.9074 15.156M29.5572 14.7576L27.2323 15.7525L24.9074 16.7474L29.5572 14.7576Z" stroke="#1C4D7E" stroke-width="0.90822" stroke-linecap="round" stroke-linejoin="round"/>
<path fill-rule="evenodd" clip-rule="evenodd" d="M26.1928 1.20249L26.1354 1.22357L16.88 5.22551V10.8461L18.5232 10.0356L20.1442 12.4671L20.1426 6.62666L29.3999 2.58287L26.1928 1.20249Z" fill="#E9EDED"/>
</svg>
